
        <svg xmlns="http://www.w3.org/2000/svg" xmlns:xlink="http://www.w3.org/1999/xlink" version="1.1" width="3230.769230769231" height="1816.6357753639397" viewBox="0 0 3230.769230769231 1816.6357753639397">
			
			<g transform="scale(11.538461538461538) translate(10, 10)">
				<defs id="SvgjsDefs1236"/><g id="SvgjsG1237" featureKey="nameFeature-0" transform="matrix(1.51869161585677,0,0,1.51869161585677,-3.03738323171354,-11.54205541150914)" fill="#fff"><path d="M2 40 l0 -32 l3.6 0 l5.24 19.6 l-0.04 -0.4 l0 -19.2 l4 0 l0 32 l-3.6 0 l-5.24 -17.6 l0.04 0.4 l0 17.2 l-4 0 z M18.3 40 l0 -32 l4 0 l0 32 l-4 0 z M25.8 40 l0 -32 l6.48 0 c4.12 0 5.52 2.52 5.52 7.36 c0 4.36 -0.52 6.84 -1.76 8.04 l0 0.24 c1.04 0.36 1.36 2.24 1.76 6.92 l0.8 9.44 l-4 0 l-0.52 -9.44 c-0.28 -4.76 -1 -5.76 -2.2 -5.76 l-2.08 0 l0 15.2 l-4 0 z M29.8 21.6 l2.48 0 c1.4 0 1.8 -1.4 1.8 -6.24 c0 -3.16 -0.6 -4.16 -1.8 -4.16 l-2.48 0 l0 10.4 z M41.3 40 l0 -32 l6.08 0 c4.12 0 5.48 2.56 5.48 7.16 l0 0.84 c0 2.76 -0.64 4.92 -1.36 6.48 l0 0.16 c1.48 1.24 2.4 3.68 2.6 7.92 l0 1.28 c-0.32 5.64 -1.8 8.16 -5.92 8.16 l-6.88 0 z M45.3 21.6 l2.08 0 c1.12 0 1.92 -1.32 1.92 -5.6 l0 -0.84 c0 -3.08 -0.72 -3.96 -1.92 -3.96 l-2.08 0 l0 10.4 z M45.3 36 l2.88 0 c1.2 0 2.04 -1 2.2 -4.16 l0 -1.28 c-0.16 -4.76 -1 -5.76 -2.2 -5.76 l-2.88 0 l0 11.2 z M56.4 40 l0 -32 l4 0 l0 13.6 l4 0 l0 -13.6 l4 0 l0 32 l-4 0 l0 -15.2 l-4 0 l0 15.2 l-4 0 z M71.9 40 l0 -16.8 c0 -11.16 0 -15.56 6 -15.56 s6 4.4 6 15.56 l0 16.8 l-4 0 l0 -9.2 l-4 0 l0 9.2 l-4 0 z M75.9 27.6 l4 0 l0 -4.4 c0 -10.4 0 -12.36 -2 -12.36 s-2 1.96 -2 12.36 l0 4.4 z M85.80000000000001 8 l4 0 l2.4 12.32 l0.4 0 l2.4 -12.32 l4 0 l-4.6 18.08 l0 13.92 l-4 0 l0 -13.92 z M108.4 30.240000000000002 l4.04 0 c0.08 5.16 0.48 6.16 1.92 6.16 c1.96 0 1.96 -1.64 1.96 -6 c0 -6.4 -7.92 -4.68 -7.92 -13.2 c0 -5 0 -9.6 6 -9.6 c4.44 0 5.64 2.52 5.92 8.56 l-4 0 c-0.16 -4.36 -0.64 -5.36 -1.92 -5.36 c-1.96 0 -1.96 2.16 -1.96 6.4 c0 6.2 7.96 4 7.96 13.2 c0 5.6 0 10 -6.04 10 c-4.64 0 -5.72 -2.76 -5.96 -10.16 z M123.10000000000001 40 l0 -32 l4 0 l0 32 l-4 0 z M130.60000000000002 40 l0 -32 l3.6 0 l5.24 19.6 l-0.04 -0.4 l0 -19.2 l4 0 l0 32 l-3.6 0 l-5.24 -17.6 l0.04 0.4 l0 17.2 l-4 0 z M146.50000000000003 23.16 c0 -11.16 0 -15.56 6 -15.56 c4.56 0 5.64 2.52 5.92 8.56 l-3.72 0 c-0.16 -4.36 -0.6 -5.36 -2.2 -5.36 c-2.24 0 -2.24 1.96 -2.24 12.36 c0 11.56 0 13.24 2.24 13.24 c2.12 0 2.24 -1.52 2.24 -10 l-2.64 0 l0 -3.2 l6.4 0 l0 1.56 c0 11.2 0 15.64 -6 15.64 s-6 -4.44 -6 -17.24 z M161.20000000000005 40 l0 -32 l4 0 l0 13.6 l4 0 l0 -13.6 l4 0 l0 32 l-4 0 l0 -15.2 l-4 0 l0 15.2 l-4 0 z"/></g><g id="SvgjsG1238" featureKey="sloganFeature-0" transform="matrix(2.4406790391706994,0,0,2.4406790391706994,49.7694138264746,50.451366041105175)" fill="#fff"><path d="M1.58 16.68 c0.04 0.1 0.1 0.48 -0.16 0.56 c0.08 0.22 -0.22 0.34 -0.04 0.44 c0.08 -0.06 -0.06 -0.22 0.12 -0.2 c-0.08 0.16 -0.04 0.46 -0.2 0.54 c0.08 0.22 0 0.5 -0.12 0.68 c0.04 0.08 0.04 -0.08 0.1 0 c-0.16 0.26 -0.02 0.6 -0.24 0.74 c0.02 0.06 0.04 -0.08 0.1 0 c-0.02 0.3 -0.12 0.42 -0.04 0.68 l-0.06 0 c-0.04 0.5 -0.02 1.14 -0.1 1.76 c0.06 0.1 0.1 0.24 0.04 0.36 c0 0.08 0.08 0.06 0.08 0.12 c-0.02 0.02 -0.04 0 -0.04 0.04 c0 0.24 0.04 0.62 0.18 0.66 c0.06 0.38 0.3 0.88 0.7 0.92 c0.36 -0.06 0.64 -0.3 0.88 -0.5 c1.48 -1.2 2.38 -3.14 3.2 -5.02 c0.02 -0.24 0.1 -0.54 0.16 -0.8 c0.1 0.06 0.2 0.12 0.28 0.2 c-0.1 0.2 0.12 0.4 0.06 0.58 c0 0.02 0.04 0.02 0.08 0.02 c-0.02 0.12 -0.04 0.2 -0.08 0.3 c0.1 0.02 0.02 -0.14 0.12 -0.12 c0 0.06 0.04 0.08 0.02 0.16 c0.08 0 0.08 -0.06 0.08 -0.12 c0.06 0 0.04 0.08 0.04 0.14 c-0.02 0.02 -0.06 0.02 -0.12 0.02 c-0.52 1.08 -1.02 2.14 -1.7 3.08 c0.06 0.06 -0.02 0.1 0 0.2 c0.12 -0.02 0.18 -0.1 0.24 -0.18 c0 -0.04 -0.02 0 -0.06 0 c0.24 -0.32 0.52 -0.68 0.72 -1.1 c0.14 0.12 -0.14 0.28 -0.06 0.42 c-0.36 0.14 -0.24 0.88 -0.6 0.96 c0 0.14 -0.08 0.18 -0.12 0.3 c-0.04 0.02 -0.1 0.02 -0.14 0.06 c-0.2 0.5 -0.62 0.76 -0.88 1.18 c-0.24 -0.02 -0.24 0.2 -0.44 0.22 c-0.36 0.6 -1.72 0.76 -2.18 0.18 c-0.1 0.06 0.14 0.14 0.06 0.18 c-0.22 -0.18 -0.44 -0.38 -0.72 -0.5 c-0.2 -0.3 -0.34 -0.66 -0.52 -1 c-0.2 -1.08 -0.12 -2.2 -0.04 -3.14 c0.02 -0.34 0.08 -0.88 0.18 -1.1 c0 -0.9 0.34 -1.68 0.46 -2.52 c0.04 -0.08 0.04 -0.22 0.12 -0.26 c0 -0.04 0 -0.06 -0.04 -0.06 c0.1 -0.24 0.22 -0.6 0.24 -0.88 c0.02 0 0.02 -0.06 0.06 -0.04 c0.02 -0.42 0.28 -0.74 0.34 -1.16 c0.04 0 0.04 -0.04 0.08 -0.02 c0 -0.3 0.12 -0.48 0.24 -0.68 l0 -0.14 c0.28 -0.4 0.36 -0.98 0.66 -1.32 c0.02 -0.06 -0.04 -0.06 -0.02 -0.12 c0.24 -0.28 0.32 -0.72 0.62 -0.94 c0 -0.1 0.04 -0.1 0 -0.16 c0.8 -0.92 1.32 -2.2 2.86 -2.3 c0.06 0 0.04 -0.06 0.1 -0.06 c0.5 -0.02 0.76 0.22 1.06 0.42 l0 0.08 c0.4 0.46 0.56 1.64 0.06 2.08 c-0.1 -0.02 -0.12 0.04 -0.24 0.02 c-0.4 -0.48 -0.28 -1.5 -0.74 -1.9 c-1.26 0.66 -1.94 2.08 -2.8 3.22 c0 0.08 -0.02 0.1 -0.04 0.16 c-0.12 -0.02 -0.08 0.1 -0.16 0.12 c0.1 0.3 -0.32 0.56 -0.34 0.82 c-0.06 0.04 -0.08 -0.02 -0.14 0.04 c-0.02 0.08 0.08 0.04 0.1 0.08 c-0.1 0.14 -0.12 0.36 -0.32 0.46 c0 0.08 0.12 0.12 0.06 0.22 c-0.1 -0.02 0 -0.08 -0.06 -0.08 c-0.08 0 -0.06 0.12 -0.1 0.16 c0.02 0.1 0.1 -0.08 0.1 0 c-0.08 0.1 -0.06 0.18 -0.16 0.28 c0.04 0 0.04 -0.04 0.1 -0.04 c-0.2 0.48 -0.34 1.06 -0.58 1.54 c0.04 0.08 0.02 -0.1 0.1 -0.06 c-0.04 0.06 -0.06 0.1 -0.06 0.2 c-0.04 0.02 -0.12 -0.02 -0.12 0.04 c0.18 0.12 -0.04 0.38 -0.06 0.62 c-0.06 0 -0.06 -0.04 -0.12 -0.02 c0.06 0.1 0.1 0.08 0.08 0.24 c-0.06 0.02 -0.04 -0.08 -0.08 -0.08 c-0.06 0 -0.02 0.08 -0.04 0.12 z M3.92 9.84 c0 -0.04 0.08 -0.14 0 -0.12 c0 0.04 -0.08 0.1 0 0.12 z M3.66 10.08 c-0.08 0.02 -0.08 0.08 -0.06 0.14 c-0.02 0.02 -0.08 0.02 -0.12 0.06 c-1.32 1.88 -2.14 4.1 -2.74 6.62 c0.08 0.1 -0.1 0.26 -0.02 0.38 c-0.06 0.08 -0.1 0.2 -0.1 0.36 c0 0.06 -0.08 0.04 -0.06 0.12 c0.02 0.02 0.08 0 0.06 0.08 c-0.04 0 -0.02 0.06 -0.08 0.04 c-0.12 0.68 -0.24 1.4 -0.28 2 c0 0.06 0.08 -0.08 0.08 0.02 c-0.06 0.06 0.04 0.14 -0.04 0.16 c-0.06 -0.02 0.04 -0.08 -0.04 -0.12 c-0.02 0.3 -0.12 0.72 -0.02 0.96 c-0.04 0.04 -0.1 0.2 -0.02 0.22 c-0.02 -0.14 0.06 -0.06 0.1 -0.1 c0 -0.42 0.1 -0.58 0.04 -1.1 c0.02 -0.08 0.06 -0.12 0.1 -0.2 c-0.04 0 -0.06 -0.02 -0.08 -0.04 c0.1 -0.08 0.1 -0.24 0.12 -0.36 c-0.08 -0.04 0 0.1 -0.08 0.08 c0.1 -0.16 0.1 -0.26 0.06 -0.44 c0.02 0 0.02 0.04 0.06 0.04 c0.02 -0.2 -0.02 -0.28 0.04 -0.5 c0.02 0 0.02 0.04 0.04 0.06 c0.02 -0.46 0.18 -0.88 0.18 -1.3 c0.12 -0.14 0.08 -0.32 0.12 -0.46 c0.48 -2.02 1.2 -4.06 2.18 -5.74 c-0.04 0 -0.02 -0.06 -0.02 -0.1 c0.14 0 0.28 -0.3 0.28 -0.44 c0.2 -0.04 0.26 -0.24 0.3 -0.44 c0.06 0 -0.04 -0.1 0 0 z M3.26 11.26 c0.02 -0.02 0.06 -0.1 0 -0.1 c0 0.02 -0.06 0.1 0 0.1 z M2.98 11.8 c0.04 -0.18 0.24 -0.3 0.2 -0.5 c-0.04 0.18 -0.3 0.38 -0.2 0.5 z M2.9 11.9 l0.06 0 l0 -0.04 l-0.06 0 l0 0.04 z M2.88 12.08 c-0.02 -0.08 0.04 -0.08 0.02 -0.16 l-0.06 0 c0 0.06 -0.02 0.14 0.04 0.16 z M2.72 12.16 c0.04 0.02 0.14 -0.02 0.12 0.06 c0.06 0 0.08 -0.04 0.1 -0.08 c-0.1 0 -0.1 -0.1 -0.2 -0.1 c0.02 0.08 -0.04 0.06 -0.02 0.12 z M2.52 12.86 c-0.04 0.02 0 0.04 0 0 c0.08 -0.02 0.08 -0.14 0.08 -0.26 c0.06 0 0.04 0.04 0.1 0 c0 -0.12 0.1 -0.18 -0.04 -0.24 c0.06 -0.04 0.2 0 0.2 -0.08 c-0.08 -0.02 -0.12 -0.06 -0.22 -0.06 c-0.02 0.12 -0.08 0.18 0.02 0.26 c-0.04 0.04 -0.06 -0.02 -0.14 0.02 c0 0.14 -0.12 0.14 -0.1 0.3 c0.08 -0.02 0.12 -0.02 0.1 0.06 z M3 12.620000000000001 l0.06 0 l0 -0.04 l-0.06 0 l0 0.04 z M2.34 13.04 c0.02 -0.04 0.08 -0.06 0.14 -0.06 c-0.04 -0.04 -0.04 -0.1 -0.1 -0.12 c0.06 0.12 -0.12 0.12 -0.04 0.18 z M2.18 13.34 c-0.06 0 -0.22 0.34 -0.06 0.44 c0.06 -0.14 -0.02 -0.28 0.12 -0.3 c0 -0.06 -0.04 -0.06 -0.02 -0.14 c0.04 0.08 0.12 0.02 0.14 -0.06 c-0.06 -0.04 -0.08 0.08 -0.1 0.02 c-0.08 -0.06 0.14 -0.18 0 -0.22 c0 0.1 -0.1 0.12 -0.08 0.26 z M1.94 13.82 c0.02 0.06 0.04 0.1 0.08 0.12 c-0.02 -0.1 0.1 -0.04 0.08 -0.14 c-0.08 0.04 -0.1 -0.02 -0.16 0.02 z M2 14.16 c-0.02 -0.06 0.04 -0.18 -0.06 -0.16 c0 0.08 -0.1 0.16 0.06 0.16 z M1.82 14.24 c0.02 -0.04 0.06 -0.06 0 -0.08 c0 0.02 -0.04 0.06 0 0.08 z M1.66 14.68 c-0.06 0.1 -0.16 0.26 -0.1 0.4 c0.04 -0.02 0 -0.12 0.08 -0.1 c0 0.04 -0.04 0.04 -0.02 0.1 c0.08 -0.02 0.1 -0.12 0.08 -0.22 c-0.04 -0.02 -0.06 0.04 -0.06 0 c0.02 -0.04 0.02 -0.12 0.02 -0.18 c0.1 0 0 0.02 0.02 0.08 c0.16 -0.06 0.12 -0.28 0.22 -0.34 c0 -0.06 -0.02 -0.1 -0.08 -0.12 c0 0.04 -0.02 0 -0.04 0 c-0.06 0.1 -0.1 0.24 -0.12 0.38 z M2.12 14.5 c0.02 -0.02 0.06 -0.12 -0.02 -0.1 c0 0.04 -0.02 0.08 0.02 0.1 z M2.02 15.14 c0.04 -0.1 0.2 -0.3 0.1 -0.38 c0 0.14 -0.16 0.26 -0.1 0.38 z M2.02 14.86 c0.02 0.08 0.02 -0.1 0 0 l0 0 z M1.3 15.96 c0.08 -0.26 0.22 -0.6 0.22 -0.86 c-0.08 0.28 -0.22 0.58 -0.22 0.86 z M1.54 15.6 c0.1 -0.02 0 -0.08 0 -0.14 c0.04 -0.12 0.16 -0.16 0.14 -0.34 c-0.04 0 -0.08 0 -0.1 -0.02 c0.06 0.12 -0.2 0.36 -0.04 0.5 z M1.9 15.219999999999999 l0 0.04 c0.06 0.04 0.08 -0.08 0.02 -0.06 c0 0 0 0.02 -0.02 0.02 z M1.66 15.68 c0.02 0.08 0.02 -0.1 0 0 l0 0 z M1.42 15.84 c0.08 0.04 0.06 -0.12 0.02 -0.12 c0.02 0.06 -0.04 0.06 -0.02 0.12 z M1.64 15.940000000000001 c-0.04 -0.08 0.06 -0.14 0 -0.18 c-0.06 0.04 -0.06 0.12 0 0.18 z M1.82 15.96 c0 -0.02 -0.04 -0.04 -0.04 0 c0.02 0 0.04 0.04 0.04 0 z M1.56 16.16 c0.02 -0.06 0.1 -0.16 0.02 -0.2 c0 0.06 -0.1 0.14 -0.02 0.2 z M0.6 19.3 c0.2 -1 0.32 -2 0.66 -2.86 c0 -0.14 0.02 -0.14 0 -0.26 c0.04 -0.06 0.14 -0.04 0.12 -0.14 c-0.08 0 -0.08 -0.04 -0.12 -0.04 c-0.28 1.22 -0.64 2.16 -0.66 3.3 z M1.76 16.16 c-0.02 -0.08 0.02 -0.08 0.02 -0.12 l-0.08 0 c0 0.04 0 0.1 0.06 0.12 z M1.68 16.22 l0.06 0 l0 -0.04 l-0.06 0 l0 0.04 z M1.46 16.42 c0 0.18 0.06 -0.08 0 0 l0 0 z M1.44 16.54 c0.04 0.08 0.04 -0.1 0 0 l0 0 z M1.22 16.68 c0 -0.06 0.1 -0.02 0.08 -0.1 c-0.04 0 -0.06 0 -0.08 -0.02 c0.02 0.04 -0.06 0.1 0 0.12 z M1.3 16.94 c-0.02 0 -0.06 -0.04 -0.08 0 c0.08 0.04 -0.14 0.32 0.04 0.38 c0.02 -0.24 0.18 -0.42 0.12 -0.64 c-0.06 0.1 -0.06 0.18 -0.08 0.26 z M1.46 17.12 c0.08 -0.04 0.12 -0.22 0.08 -0.3 c-0.04 0.08 -0.04 0.2 -0.08 0.3 z M1.16 17.56 c0.06 0.02 0.12 -0.2 0.02 -0.2 c-0.04 0.04 0.02 0.14 -0.02 0.2 z M1.04 17.44 c0.02 0.1 0.02 -0.08 0 0 l0 0 z M1.02 17.62 c0.02 0 0.04 0 0.06 0.02 c0 -0.06 -0.04 -0.08 0 -0.12 c-0.06 0 -0.08 0.04 -0.06 0.1 z M1.1 17.86 c-0.16 0 -0.08 0.26 -0.18 0.3 c0.02 0 0.06 0 0.06 0.04 c-0.02 0.04 -0.14 0.22 0 0.24 c0.04 -0.22 0.06 -0.3 0.08 -0.54 c0.08 0.06 0.14 -0.2 0.1 -0.26 c-0.04 0.06 -0.06 0.12 -0.06 0.22 z M1.06 17.740000000000002 c0.02 0 -0.02 -0.02 0 0 l0 0 z M0.82 19.22 c-0.02 0.1 -0.14 0.24 0 0.3 c0 -0.4 0.14 -0.64 0.1 -1.02 c-0.04 0.26 -0.1 0.5 -0.1 0.72 z M0.58 18.62 c0.02 0.02 -0.02 0 0 0 l0 0 z M1.16 18.76 c0.02 0.1 0.02 -0.08 0 0 l0 0 z M1.14 18.88 c0 0.02 -0.02 0 0 0 l0 0 z M6.2 18.94 c0.02 0 -0.02 -0.02 0 0 l0 0 z M6.44 19.06 c0.02 0 -0.02 -0.02 0 0 l0 0 z M1.06 19.28 l0.04 0 l0 -0.06 l-0.04 0 l0 0.06 z M1.06 19.32 c0.02 0.1 0.02 -0.1 0 0 l0 0 z M0.48 19.78 c0.06 -0.08 0.1 -0.32 0.08 -0.42 c-0.04 0.14 -0.08 0.26 -0.08 0.42 z M6.2 19.4 c-0.14 0 -0.04 0.32 -0.2 0.24 c0 0.08 -0.04 0.1 0 0.18 c0.14 -0.04 0.18 -0.2 0.14 -0.34 c0.04 0.02 0.04 0.04 0.08 0.06 c0.02 -0.08 -0.02 -0.1 -0.02 -0.14 c0.04 -0.02 0 -0.04 0 0 z M1.04 19.54 c-0.02 0.14 0 -0.1 0 0 l0 0 z M0.74 19.78 c-0.06 0.08 0.08 -0.06 0 0 l0 0 z M0.98 19.9 l0.06 0 l0 -0.06 l-0.06 0 l0 0.06 z M5.96 20.02 c0.02 -0.02 0.1 -0.16 0 -0.14 c0.02 0.06 -0.06 0.12 0 0.14 z M0.74 19.9 c-0.02 0 -0.04 0 -0.04 0.02 c0.02 0 0.04 0 0.04 -0.02 z M0.96 20.06 c-0.02 0.14 0.02 -0.1 0 0 l0 0 z M0.7 20.12 c-0.02 0.14 0.02 -0.1 0 0 l0 0 z M0.46 20.16 c0.02 0.02 -0.02 -0.02 0 0 l0 0 z M5.64 20.52 c0.12 -0.02 0.24 -0.26 0.12 -0.36 c-0.06 0.14 -0.08 0.2 -0.12 0.36 z M0.94 20.2 c0.02 0.1 0.02 -0.08 0 0 l0 0 z M0.44 20.26 c-0.02 0.14 0 -0.1 0 0 l0 0 z M0.9 20.32 c0.02 0.1 0.02 -0.08 0 0 l0 0 z M0.62 20.38 c0.04 0.08 0.04 -0.1 0 0 l0 0 z M0.42 20.4 c0.02 0.1 0.02 -0.1 0 0 l0 0 z M5.6 20.62 c0.02 0 -0.02 -0.02 0 0 l0 0 z M0.56 20.64 c0.02 0.02 -0.02 -0.02 0 0 l0 0 z M5.54 20.74 c0 -0.02 0.02 -0.04 0.04 -0.02 c-0.02 -0.04 -0.02 -0.06 -0.06 -0.06 c0 0.04 0 0.08 0.02 0.08 z M0.62 20.72 c-0.02 0.12 0.12 0 0 0 l0 0 z M0.48 20.86 c0.02 0 0.04 0.02 0.06 0.02 c-0.02 -0.04 0 -0.08 -0.06 -0.08 l0 0.06 z M5.38 20.9 c0.06 0.02 0.04 -0.04 0.08 -0.06 l-0.08 0 l0 0.06 z M5.36 21.1 c0.02 -0.06 0.06 -0.1 0.06 -0.18 l-0.06 0 c0.02 0.1 -0.12 0.14 0 0.18 z M0.62 21.02 c0.02 0.02 0 0 0 0 l0 0 z M0.22 21.32 l0 -0.08 c-0.08 -0.04 -0.08 0.1 0 0.08 c0 0.04 -0.04 0.04 -0.02 0.12 c0.04 -0.02 0.04 0.02 0.1 0.02 c-0.06 -0.14 0.06 -0.26 -0.04 -0.38 c-0.06 0.06 0.02 0.16 -0.04 0.24 z M5.24 21.16 c0.02 0.02 -0.02 0 0 0 l0 0 z M0.46 21.28 c0.08 0.02 0.1 -0.1 0.02 -0.12 c0.02 0.06 -0.04 0.06 -0.02 0.12 z M5.18 21.32 c0.08 0.02 0.08 -0.12 0 -0.08 l0 0.08 z M5.04 21.52 c0.08 0.04 0.08 -0.16 0 -0.12 l0 0.12 z M0.3 21.64 c0 -0.06 -0.02 -0.1 -0.06 -0.12 c0.02 0.06 -0.02 0.16 0.06 0.12 z M0.54 21.68 c-0.02 -0.08 -0.04 -0.1 -0.1 -0.1 c0 0.04 0.02 0.1 0.1 0.1 z M0.22 21.84 c-0.04 -0.04 0 -0.26 -0.04 -0.22 c0.02 0.06 -0.06 0.22 0.04 0.22 z M0.78 21.68 c0 0 -0.02 -0.02 0 0 l0 0 z M5.4 21.76 c0.02 -0.04 0 -0.08 -0.04 -0.08 c0 0.04 -0.02 0.12 0.04 0.08 z M4.9 21.74 c0.02 0.02 -0.02 0 0 0 l0 0 z M0.3 21.98 c-0.04 -0.08 0.02 -0.12 -0.06 -0.18 c0.02 0.1 -0.06 0.16 0.06 0.18 z M0.78 21.82 c-0.04 0.14 0.1 0 0 0 l0 0 z M5.24 22.1 c-0.02 -0.08 0.14 -0.18 0 -0.18 c0 0.04 -0.06 0.14 0 0.18 z M4.86 22.1 c0 -0.04 0.02 -0.06 0.04 -0.1 c-0.06 -0.02 -0.1 0.1 -0.04 0.1 z M0.22 22.22 c0 0.18 0.06 -0.08 0 0 l0 0 z M4.9 22.2 c-0.02 0.14 0.1 0 0 0 l0 0 z M0.5 22.36 c0.02 0.02 0 0 0 0 l0 0 z M0.24 22.44 c0.02 0.02 0 -0.02 0 0 l0 0 z M0.54 22.54 c0 -0.04 -0.06 -0.04 -0.06 0 c0.04 0 0.04 0.02 0.06 0 z M4.54 22.72 c0 -0.08 0.12 -0.06 0.1 -0.16 c-0.08 0 -0.2 0.12 -0.1 0.16 z M4.4 22.9 c0.06 -0.02 0.14 -0.16 0.06 -0.18 c0.02 0.1 -0.08 0.06 -0.06 0.18 z M0.62 23.2 c0.02 0.02 0 0 0 0 l0 0 z M0.66 23.32 c0 0.02 -0.02 0 0 0 l0 0 z M3.22 10.78 l0 0 c0.02 0 -0.02 -0.02 0 0 z M2.5 12.68 c0.04 0.02 0.1 0.04 0.04 0.08 c-0.02 0 -0.04 -0.04 -0.04 -0.08 z M1.78 14.379999999999999 c0.06 -0.1 0.04 0.08 0 0 l0 0 z M1.62 15.24 l0 0 c0 0.02 -0.02 -0.02 0 0 z M1.1 15.8 c0.04 -0.1 0.04 0.08 0 0 l0 0 z M1.58 16.68 c0.04 0 0.06 0 0.08 0.02 c0 0.04 -0.06 0.02 -0.08 0 l0 -0.02 z M1.5 17.259999999999998 c0.06 0 0 0.08 0 0.1 c-0.06 -0.02 -0.02 -0.1 0 -0.1 z M0.56 17.98 c0.02 -0.1 0.02 0.08 0 0 l0 0 z M0.54 18.12 l0 0 c0 0.02 -0.02 -0.02 0 0 z M0.48 18.48 l0 0 c0.02 0.02 0 -0.02 0 0 z M6.62 18.6 c0.06 -0.1 0.04 0.08 0 0 l0 0 z M0.44 18.74 l0 0 c-0.02 0.14 0 -0.1 0 0 z M0.42 18.92 c0 -0.02 -0.02 -0.04 0 -0.04 c0.1 -0.02 -0.12 0.16 0 0.04 z M6.66 18.94 c0.02 -0.1 0.02 0.08 0 0 l0 0 z M6.62 18.98 c0.14 0.1 0.02 0.3 -0.08 0.38 c-0.02 -0.18 0.14 -0.22 0.08 -0.38 z M0.38 19.16 l0 0 c0.02 0 0 -0.02 0 0 z M0.36 19.32 c0.08 0.04 -0.02 0.1 0 0.16 c-0.04 0 -0.02 -0.14 0 -0.16 z M6.48 19.42 c0.02 0.16 -0.06 0.4 -0.06 0.5 c-0.04 0 -0.04 -0.02 -0.08 -0.02 c0 0.2 -0.14 0.26 -0.2 0.42 c-0.02 -0.02 -0.06 -0.06 -0.06 -0.12 c0.1 0.02 0.04 -0.14 0.16 -0.12 c0 -0.12 0.02 -0.22 0.12 -0.26 c-0.04 -0.12 0.08 -0.26 0.12 -0.4 z M0.42 19.52 l0 0 c0.02 -0.02 -0.02 -0.04 0 0 z M0.42 19.52 l0 0 c-0.04 0 0 0.02 0 0 z M0.32 19.68 c0.02 -0.1 0.02 0.1 0 0 l0 0 z M0.3 20.08 c0.04 0 0.04 0.14 -0.04 0.1 c0 -0.04 0.02 -0.06 0.04 -0.1 z M0.26 20.26 l0.08 0 c-0.02 0.06 -0.02 0.04 0 0.12 c-0.08 -0.02 -0.1 -0.06 -0.08 -0.12 z M6.1 20.42 c-0.02 0.18 -0.14 0.26 -0.2 0.42 c-0.14 -0.12 0.1 -0.32 0.12 -0.46 c0.04 0 0.04 0.04 0.08 0.04 z M6.1 20.42 c0 -0.02 0 -0.06 0.04 -0.04 l0 0.04 l-0.04 0 z M0.24 20.42 c0.04 -0.1 0.04 0.1 0 0 l0 0 z M5.82 20.56 l0 0 c-0.02 0.14 0 -0.1 0 0 z M0.26 20.62 c0.04 0 0.02 0.06 0.04 0.1 c-0.06 -0.02 -0.06 -0.08 -0.04 -0.1 z M0.24 20.84 l0 0 c0.02 0 0 -0.02 0 0 z M5.54 21.04 c0.08 0.04 0 0.14 -0.06 0.1 c0 -0.04 0.06 -0.04 0.06 -0.1 z M5.16 21.7 l0 0 c0.02 0 0 -0.02 0 0 z M12.345 15.8 c-0.08 -0.06 -0.18 -0.12 -0.28 -0.16 c-0.64 0.26 -1.08 0.82 -1.64 1.04 c-0.04 0.18 -0.12 0.32 -0.28 0.36 c-0.6 0.84 -1.2 1.66 -1.68 2.6 c-0.06 0.46 -0.28 0.74 -0.66 0.88 c-1 -0.46 -0.42 -2.04 -0.32 -2.94 c0.2 -0.46 0.22 -1.16 0.44 -1.52 c0.88 0.2 0.52 1.14 0.42 1.78 c0.46 -0.7 1.04 -1.28 1.62 -1.88 c0.54 -0.46 1.9 -1.1 2.38 -0.16 z M10.865 15.66 c0.14 0.02 0.14 -0.1 0.24 -0.06 c-0.06 -0.14 0.16 -0.02 0.18 -0.16 c-0.14 0.04 -0.26 0.06 -0.32 0.04 c-1.1 0.64 -1.98 1.68 -2.58 2.8 c0.7 -1 1.46 -1.94 2.48 -2.62 z M11.345 15.46 c0.02 0.02 -0.02 0 0 0 l0 0 z M11.445 15.64 c0 0.04 -0.02 0.06 -0.04 0.08 c0.08 -0.02 0.18 -0.02 0.2 -0.12 c-0.06 0.02 -0.1 0.04 -0.16 0.04 z M11.245000000000001 15.82 c0.08 0 0.1 -0.06 0.14 -0.1 c-0.08 -0.04 -0.2 0 -0.14 0.1 z M10.685 16.12 c0.18 -0.02 0.3 -0.24 0.46 -0.24 c-0.02 -0.06 0.08 -0.14 -0.02 -0.12 c-0.12 0.14 -0.32 0.22 -0.44 0.36 z M10.965 16.04 c-0.06 0.08 0.08 -0.06 0 0 l0 0 z M10.525 16.28 c0.06 -0.04 0.14 -0.06 0.16 -0.14 c-0.06 0.04 -0.22 0.06 -0.16 0.14 z M10.265 16.62 c0.04 -0.08 0.16 -0.1 0.16 -0.22 l-0.06 0 c0.02 0.12 -0.18 0.14 -0.1 0.22 z M10.065000000000001 16.78 c0 0 0 -0.02 0.02 -0.02 c0 -0.02 0 -0.06 -0.04 -0.04 c0 0.02 0 0.06 0.02 0.06 z M10.865 15.66 c-0.02 0 -0.04 -0.02 0 -0.02 l0 0.02 z M10.165000000000001 16.08 l0 0 c0.02 0.02 -0.02 0 0 0 z M7.365 16.62 c0 -0.08 0.1 0.02 0 0 l0 0 z M14.51 18.12 c0.02 0 0.02 -0.02 0.02 -0.02 c-0.02 -0.04 -0.02 0 -0.02 0.02 c-0.08 0.06 -0.24 0.1 -0.22 0.18 c-0.08 0.1 -0.2 0.1 -0.32 0.18 c-0.82 0.52 -1.86 2.24 -3.02 1.78 c-0.04 -0.14 -0.12 -0.24 -0.16 -0.36 c0 -0.1 -0.08 0.04 -0.08 -0.04 c-0.06 -0.1 -0.1 -0.2 -0.16 -0.3 c0.28 -1.4 1.04 -2.32 1.78 -3.3 c0.28 -0.22 0.62 -0.48 1.08 -0.48 c0.44 0.1 0.96 0.24 1.04 0.78 c0.04 0.3 -0.08 0.5 -0.2 0.7 c0.16 0 0.34 -0.16 0.6 -0.12 c0.36 0.14 0.42 0.88 0.16 1.14 c0.18 0.3 -0.18 0.74 -0.04 1.08 c2 -0.32 3.12 -1.74 4.34 -2.92 c-0.14 1.06 -1.22 1.6 -1.92 2.32 c-0.46 0.26 -0.8 0.5 -1.3 0.72 c0.04 0.06 0.12 -0.06 0.2 -0.04 c-0.02 0.06 -0.1 0.04 -0.1 0.1 c0.82 -0.28 1.34 -0.96 2.04 -1.28 c-0.02 -0.06 -0.08 0.02 -0.12 0 c0.04 -0.06 0.1 -0.18 0.14 -0.04 c0.06 -0.14 0.28 -0.38 0.56 -0.44 c-0.86 1.04 -1.96 1.74 -3.28 2.36 c-0.18 0.02 -0.32 -0.04 -0.5 -0.04 c-0.3 -0.1 -0.4 -0.26 -0.54 -0.52 c-0.02 -0.4 -0.04 -1.02 0.02 -1.46 z M11.33 19.5 c1.02 -0.5 1.66 -1.34 2.48 -2.04 c-0.16 -0.14 -0.06 -0.62 -0.1 -0.8 c-1.32 0.42 -1.8 1.68 -2.38 2.84 z M19.07 16.9 c0.02 0.08 0.06 -0.1 0 0 l0 0 z M18.95 17.04 c0.04 0.04 0.08 -0.02 0.1 -0.08 c-0.06 0.02 -0.12 0.02 -0.1 0.08 z M16.53 18.94 c-0.02 -0.04 -0.06 -0.04 -0.06 0 c-0.06 -0.02 -0.08 0.02 -0.1 0.06 c0.06 0 0.08 -0.04 0.1 -0.06 l0.06 0 c-0.04 0.08 -0.14 0.1 -0.22 0.14 c0 -0.04 0.1 -0.08 0 -0.08 c-0.04 0.08 -0.08 0.2 -0.2 0.1 c-0.02 0.06 -0.08 0.16 0 0.16 c1.08 -0.56 2.12 -1.3 2.82 -2.2 c-0.78 0.66 -1.5 1.36 -2.4 1.88 z M14.17 17.58 c-0.08 0.12 0.14 0.04 0 0 l0 0 z M14.01 17.740000000000002 c0.02 0.04 0.16 -0.04 0.08 -0.08 c0 0.06 -0.1 0 -0.08 0.08 z M13.889999999999999 17.86 c-0.06 -0.02 -0.1 0.08 -0.06 0.08 c0 -0.04 0.06 -0.02 0.06 -0.08 c0.02 0 0.02 0.02 0.04 0.02 c0.02 -0.02 0.02 -0.04 0.02 -0.08 c-0.04 0 -0.06 0.02 -0.06 0.06 z M14.01 17.92 c0 0.02 -0.02 0 0 0 l0 0 z M13.43 18.24 c-0.06 0.08 0.08 -0.06 0 0 l0 0 z M13.35 18.3 c0.02 0.02 0 0 0 0 l0 0 z M14.17 18.3 c0.12 0.04 0.02 -0.06 0 0 l0 0 z M14.07 18.38 c0.1 0.02 0 -0.08 0 0 l0 0 z M16.21 19.1 c0.02 0.02 -0.02 0 0 0 l0 0 z M11.19 19.14 c0.1 0.04 0 -0.06 0 0 l0 0 z M11.17 19.26 c-0.04 0.06 -0.14 0.18 -0.1 0.22 c0.04 -0.06 0.1 -0.1 0.1 -0.22 c0.04 0 0 -0.02 0 0 z M15.93 19.58 c0.04 -0.02 0.12 -0.02 0.14 -0.08 c-0.08 0 -0.16 0 -0.14 0.08 z M11.049999999999999 19.56 c-0.06 0.08 0.08 -0.06 0 0 l0 0 z M15.969999999999999 19.66 c0.08 -0.04 0.18 -0.04 0.2 -0.12 c-0.08 0.02 -0.16 0.04 -0.2 0.12 z M11.049999999999999 19.66 c0.04 -0.08 -0.1 -0.08 -0.1 -0.04 c0.04 0 0.06 0.04 0.1 0.04 z M18.97 17.46 c0.06 0.04 -0.02 0.12 -0.08 0.1 c0.02 -0.04 0.08 -0.04 0.08 -0.1 z M18.93 17.64 c0.02 0.08 -0.14 0.12 -0.12 0.02 c0.04 0.02 0.04 -0.04 0.12 -0.02 z M18.689999999999998 17.68 c0.02 -0.08 0.02 0.1 0 0 l0 0 z M16.45 19.36 c0 0.06 -0.08 0.04 -0.08 0.08 c-0.06 -0.02 0.04 -0.08 0.08 -0.08 z M19.154999999999998 22.62 c0.14 -0.12 0.46 -0.52 0.76 -0.36 c-0.54 0.66 -1.1 1.3 -1.6 2.02 c-0.24 0.4 -0.42 1 -0.8 1.2 c-0.06 0.36 -0.32 0.66 -0.3 1.16 c0.04 0.12 0.16 0.18 0.22 0.28 c0.32 0.14 0.88 0.02 1.22 -0.16 c1.42 -0.72 2.58 -2.02 3.02 -3.72 c0.12 -0.92 -0.04 -1.94 -1.06 -2.22 c-1.02 -0.14 -2.18 -0.3 -3.1 -0.42 c-0.36 -0.88 0.6 -1.28 1.14 -1.64 c0.1 -0.1 0.24 -0.28 0.38 -0.24 c0.74 -0.6 1.56 -0.96 2.28 -1.54 c-0.86 -0.04 -2.06 0.28 -2.96 0.04 c-0.14 -0.4 -0.14 -0.72 0.16 -1.02 c0.2 0.18 0.66 0.02 0.9 0.16 c0.24 -0.06 0.46 0 0.6 -0.08 c0.54 0.14 1.6 -0.24 1.94 0.28 c0.02 0.08 -0.02 0.1 -0.02 0.18 c0.08 0.12 0.12 0.26 0.22 0.36 c0.04 0.24 -0.08 0.22 -0.04 0.38 c-0.88 0.92 -2.14 1.56 -3.2 2.2 c0 0.08 -0.12 0.16 -0.24 0.2 c0.1 0.12 0.24 0.02 0.32 0.12 c0.04 0 0.16 0.04 0.18 -0.02 c0.12 0.08 0.2 0.06 0.42 0.08 c0.02 0.04 0.08 0.04 0.12 0.06 c0.9 0.06 1.68 0.42 1.96 1.16 c0.22 0.58 0.46 1.28 0.44 2 c-0.08 1.38 -0.88 2.44 -1.6 3.24 c-0.06 0 -0.08 -0.06 -0.16 -0.04 c0 0.06 0.08 0.04 0.1 0.08 c-0.62 0.64 -1.26 1.22 -2.1 1.36 c-0.24 0.24 -0.86 0.3 -1.22 -0.04 c-0.38 -0.7 -0.36 -1.5 -0.18 -2.24 c0.04 0 0.04 0.04 0.04 0.08 c0.1 -0.32 0.36 -0.46 0.34 -0.82 c0.1 -0.04 0 0.1 0.06 0.1 c0.1 -0.02 -0.02 -0.12 -0.04 -0.16 c0.28 -0.8 0.98 -1.38 1.58 -1.8 c0 -0.1 -0.08 0.02 -0.06 -0.08 c0.04 -0.04 0.06 0 0.08 0.02 c0.02 -0.14 0.16 -0.04 0.2 -0.16 z M19.915 18.04 c-0.02 0.14 0.12 0 0 0 l0 0 z M18.794999999999998 19.02 c0.1 0.02 0 -0.08 0 0 l0 0 z M18.334999999999997 19.16 c0.04 0.1 0.04 -0.1 0 0 l0 0 z M21.915 21.96 c-0.02 0.16 0.08 0.06 0 0 c-0.02 -0.02 -0.02 0.02 0 0 z M21.994999999999997 22.54 c-0.02 -0.2 0 -0.3 -0.06 -0.42 c0 0.12 0 0.32 0.06 0.42 z M19.374999999999996 22.48 c0.06 0 0.08 -0.04 0.1 -0.08 c-0.06 0 -0.08 0.04 -0.1 0.08 z M21.994999999999997 22.68 c0.02 -0.02 0.02 -0.08 -0.04 -0.08 c0.02 0.02 0 0.08 0.04 0.08 z M21.955 22.759999999999998 c0.08 0.08 0.04 -0.08 0 0 l0 0 z M18.514999999999997 23.82 c-0.06 0.08 0.08 -0.06 0 0 l0 0 z M18.354999999999997 23.88 c0.04 0.08 0.06 -0.08 0 0 l0 0 z M17.455 24.6 c0.06 0.04 0.14 -0.06 0.18 -0.12 c-0.06 0.02 -0.08 -0.02 -0.14 -0.02 c-0.02 0.06 -0.06 0.08 -0.04 0.14 z M17.474999999999998 24.88 c0.02 0 -0.02 -0.02 0 0 l0 0 z M17.595 25.12 c0.02 -0.02 0.06 -0.12 -0.02 -0.1 c0 0.04 -0.02 0.08 0.02 0.1 z M18.115 27.3 l0.08 0 c0 -0.04 -0.02 -0.06 -0.08 -0.06 l0 0.06 z M18.955 27.46 c0.04 -0.02 0 -0.02 0 0 c-0.04 0 -0.1 -0.04 -0.12 0.02 c0.06 0.02 0.1 0.04 0.12 -0.02 z M19.154999999999998 22.62 c-0.08 0 0.02 -0.1 0 0 l0 0 z M19.074999999999996 22.62 c0.04 -0.1 0.04 0.1 0 0 l0 0 z M18.415 23.22 l0 0 c0.02 0.02 -0.02 -0.02 0 0 z M27.279999999999998 19.48 c1.24 -1.04 2.46 -2.08 3.72 -3.08 c0.24 0.04 0.48 0.12 0.52 0.4 c-1.34 1.42 -2.96 2.56 -4.36 3.92 c0 0.66 -0.08 1.2 -0.08 1.82 c-0.34 2.88 -0.74 5.64 -1.68 8.06 c-0.2 0.92 -0.6 1.76 -1.02 2.44 c-0.74 1.28 -1.64 2.66 -3.58 2.6 c-0.14 -0.06 -0.34 -0.14 -0.48 -0.16 c-0.02 -0.04 -0.06 -0.06 -0.04 -0.14 c-0.82 -0.3 -1.14 -1.26 -1.42 -2.14 c-0.22 -1.42 0.34 -2.58 0.8 -3.68 c0.54 -1.28 1.16 -2.54 1.96 -3.54 c1.16 -1.96 2.7 -3.52 4.14 -5.18 c0.3 -0.2 0.52 -0.48 0.76 -0.72 c0.06 -1.02 0.1 -2.08 0.2 -3.08 c-0.9 0.7 -1.64 1.76 -2.76 2.3 c-1.64 -0.24 -0.52 -2.26 -0.28 -3.22 c1.08 0.3 0.26 1.68 0.08 2.34 c1.14 -0.68 2.12 -1.68 3.08 -2.62 c0.24 -0.18 0.52 -0.04 0.62 0.2 c0.02 1.04 -0.2 2.38 -0.18 3.48 z M30.679999999999996 16.88 c0.08 -0.06 0.3 -0.2 0.24 -0.26 c-0.08 0.1 -0.22 0.12 -0.24 0.26 z M31.059999999999995 16.92 c-0.02 -0.08 0.08 -0.04 0.06 -0.12 c-0.08 -0.06 -0.08 0.04 -0.14 0.08 c-1.24 0.96 -2.5 2.08 -3.74 3.12 c0 0.12 0 0.24 -0.02 0.34 c0.26 -0.18 0.5 -0.34 0.66 -0.6 c0.22 -0.06 0.44 -0.3 0.56 -0.54 c0.38 0.06 0.52 -0.64 0.92 -0.64 c0.48 -0.66 1.42 -1.2 1.94 -1.8 c-0.02 0.04 -0.04 0 -0.08 0 c-0.02 0.08 -0.06 0.14 -0.16 0.16 z M30.319999999999997 17.2 c0.08 -0.12 0.3 -0.2 0.28 -0.32 c-0.06 0.14 -0.28 0.12 -0.28 0.32 z M30.139999999999997 17.34 c0.04 0.08 0.06 -0.1 0 0 l0 0 z M29.839999999999996 17.68 c0.02 -0.06 0.14 -0.14 0.04 -0.18 c-0.02 0.04 -0.12 0.12 -0.04 0.18 z M29.959999999999997 17.52 c0 0.02 -0.02 0 0 0 l0 0 z M29.499999999999996 17.94 c0.06 -0.1 0.2 -0.12 0.24 -0.22 c-0.12 0.04 -0.22 0.08 -0.24 0.22 z M29.399999999999995 17.98 c0.08 0.04 0.08 -0.1 0 -0.06 l0 0.06 z M28.939999999999998 18.34 c0.14 -0.08 0.4 -0.18 0.38 -0.34 c-0.12 0.12 -0.26 0.22 -0.38 0.34 z M28.939999999999998 18.42 c-0.38 0.04 -0.74 0.68 -1.14 0.78 c-0.06 0.32 -0.54 0.34 -0.52 0.66 c0.24 -0.1 0.32 -0.46 0.56 -0.46 c0.02 -0.1 0.06 -0.2 0.16 -0.12 c0.26 -0.36 0.62 -0.58 0.94 -0.86 z M26.199999999999996 20.62 c0.06 0.16 -0.14 0.18 -0.16 0.32 c-0.06 0.02 -0.06 -0.04 -0.12 -0.02 c-0.16 0.14 -0.3 0.3 -0.48 0.44 c0.16 0.02 0.32 -0.18 0.44 -0.3 c0.02 0.02 0 0.08 0.06 0.06 c0.24 -0.08 0.3 -0.52 0.46 -0.48 c0.04 -0.04 0.14 -0.16 0.08 -0.24 c-0.1 0.08 -0.18 0.16 -0.28 0.22 z M22.359999999999996 25.9 c0 0.12 -0.08 0.12 -0.08 0.24 c-0.06 0.02 -0.18 0.12 -0.08 0.14 c0.02 -0.04 0.08 -0.06 0.08 -0.14 c0.12 -0.1 0.24 -0.22 0.28 -0.4 c-0.12 0 -0.1 0.14 -0.2 0.16 c0.1 -0.18 0.22 -0.34 0.34 -0.48 c0 0.12 -0.1 0.14 -0.12 0.24 c0.58 -0.56 0.94 -1.3 1.52 -1.84 c-0.08 -0.12 0.08 -0.12 0.02 -0.2 c-0.1 0.12 -0.2 0.26 -0.32 0.36 c0.24 -0.36 0.5 -0.7 0.8 -1 c0 0.06 -0.06 0.06 -0.04 0.14 c0.08 -0.02 0.2 -0.14 0.16 -0.22 c-0.02 0.04 -0.04 0.08 -0.12 0.08 c0.22 -0.3 0.5 -0.64 0.74 -0.82 c-0.02 0.1 -0.12 0.12 -0.14 0.22 c0.14 -0.06 0.18 -0.22 0.32 -0.2 c-0.18 -0.08 0.34 -0.36 0.14 -0.4 c0.1 -0.06 0.12 -0.18 0.24 -0.22 c-0.02 0.04 -0.08 0.04 -0.06 0.12 c0.2 -0.12 0.36 -0.26 0.46 -0.48 c-0.16 0.04 -0.2 0.3 -0.34 0.28 c0.08 -0.32 0.64 -0.42 0.46 -0.74 c-0.08 0.14 -0.3 0.24 -0.3 0.38 c-0.22 0.14 -0.58 0.46 -0.66 0.72 c-2.14 2.16 -3.82 4.66 -5.26 7.5 c-0.14 0.5 -0.28 0.7 -0.4 1.12 c0.5 -0.96 1 -2.1 1.58 -3.04 l0 0.1 c0.32 -0.34 0.46 -0.68 0.7 -1.08 c-0.22 0.1 -0.22 0.44 -0.44 0.54 c0.2 -0.36 0.44 -0.76 0.72 -1.08 z M26.059999999999995 20.86 c0 -0.04 0.04 -0.12 -0.04 -0.1 c0 0.06 0 0.1 0.04 0.1 z M25.839999999999996 21.18 c0.02 0.02 0 -0.02 0 0 l0 0 z M25.599999999999994 21.44 c0.12 -0.04 0.18 -0.12 0.22 -0.22 c-0.1 0.04 -0.14 0.14 -0.22 0.22 z M23.299999999999997 25.04 c0 0.08 -0.04 0.1 -0.04 0.2 c-0.78 0.84 -1.34 1.94 -1.98 2.88 c-0.7 1.64 -1.56 2.96 -1.7 5.12 c-0.1 0.04 -0.02 0.3 -0.12 0.42 c-0.04 -0.04 0.04 -0.22 -0.06 -0.22 c-0.06 0.3 0.06 0.58 0.14 0.84 c0.4 0.6 1.42 0.8 2.18 0.4 c1.98 -1.12 2.66 -3.36 3.44 -5.6 c0.5 -2.22 1.14 -4.78 1.26 -7.64 c0 -0.02 0 -0.02 -0.02 -0.02 c-1.06 1.16 -2.08 2.4 -3.1 3.62 z M25.179999999999996 21.7 c0.1 0 0.28 -0.16 0.16 -0.22 c-0.04 0.1 -0.16 0.1 -0.16 0.22 z M25.439999999999998 21.52 c0.02 0 0 -0.02 0 0 l0 0 z M25.399999999999995 21.72 c-0.04 -0.06 0.1 -0.08 0.02 -0.12 c0 0.04 -0.1 0.1 -0.02 0.12 z M25.779999999999998 21.8 c0 -0.04 0.1 -0.08 0.02 -0.1 c0 0.04 -0.1 0.08 -0.02 0.1 z M24.919999999999995 22 c0.1 0 0.06 -0.16 0.2 -0.1 c0.02 -0.06 0.1 -0.12 0 -0.14 c-0.02 0.1 -0.2 0.08 -0.2 0.24 z M25.239999999999995 21.8 c0.02 0.02 0 -0.02 0 0 l0 0 z M25.199999999999996 21.88 c0.1 0.02 0 -0.08 0 0 l0 0 z M25.699999999999996 21.94 c0.1 0.02 0.02 -0.06 0 0 l0 0 z M24.819999999999997 22.08 c0.08 0 0.1 0.06 0.12 -0.02 c-0.04 -0.04 -0.1 -0.02 -0.12 0.02 z M24.999999999999996 22.08 c0.06 0 0.08 -0.02 0.08 -0.04 c-0.04 0 -0.06 0.02 -0.08 0.04 z M24.939999999999998 22.14 l0 0.04 c0.06 0.04 0.06 -0.08 0.02 -0.06 c0 0 0 0.02 -0.02 0.02 z M24.639999999999997 22.259999999999998 c0.08 0 0.16 -0.02 0.16 -0.1 c-0.08 0.02 -0.12 0.04 -0.16 0.1 z M24.859999999999996 22.259999999999998 c-0.06 0.08 0.08 -0.06 0 0 l0 0 z M24.559999999999995 22.4 l-0.04 0 c-0.02 0.02 -0.02 0.12 0.04 0.12 l0 -0.12 c0.06 0 0.12 0 0.12 -0.04 c-0.06 -0.06 -0.12 -0.02 -0.12 0.04 z M24.759999999999998 22.36 c-0.02 0.14 0.02 -0.1 0 0 l0 0 z M25.179999999999996 22.5 l0 0.02 c0.06 0.02 0.1 -0.06 0.02 -0.04 l0 -0.08 c-0.06 0.04 -0.14 0.06 -0.14 0.16 c0.08 0.04 0.08 -0.04 0.12 -0.06 z M24.399999999999995 22.62 c-0.1 0 0 0.08 0 0 c0.02 0 0.04 0.02 0.06 0.02 c0 -0.06 0.06 -0.14 -0.02 -0.14 c-0.02 0.02 -0.04 0.06 -0.04 0.12 z M24.579999999999995 22.62 c0.04 0.02 0.1 -0.06 0.04 -0.08 c0 0.04 -0.06 0.02 -0.04 0.08 z M24.519999999999996 22.62 c0.04 0.08 0.04 -0.1 0 0 l0 0 z M24.759999999999998 22.88 c0.08 -0.06 0.28 -0.12 0.24 -0.2 c0 0.02 -0.02 0.04 -0.04 0.04 c0 -0.06 -0.02 -0.08 -0.04 -0.08 c-0.06 0.08 -0.1 0.16 -0.16 0.24 z M24.159999999999997 22.86 c-0.12 0.08 -0.3 0.26 -0.28 0.4 c0.16 -0.06 0.18 -0.26 0.32 -0.36 c-0.02 -0.02 -0.04 -0.02 -0.04 -0.04 l0.12 0 c0.04 -0.06 0.06 -0.1 0.06 -0.2 c-0.1 0.02 -0.1 0.06 -0.08 0.14 c-0.04 0.02 -0.12 -0.02 -0.1 0.06 z M24.319999999999997 22.92 c0.06 -0.04 0.2 -0.12 0.14 -0.2 c-0.02 0.08 -0.16 0.08 -0.14 0.2 z M24.219999999999995 23.02 c0.06 0.1 0.04 -0.08 0 0 l0 0 z M24.119999999999997 23.22 c0 -0.04 0.1 -0.14 0 -0.12 c0.02 0.04 -0.06 0.1 0 0.12 z M23.859999999999996 23.52 c0.04 -0.08 0.28 -0.22 0.16 -0.3 c0 0.14 -0.22 0.18 -0.16 0.3 z M24.399999999999995 23.259999999999998 c0.04 0.08 0.06 -0.1 0 0 l0 0 z M24.199999999999996 23.56 c-0.04 0 0 0.02 0 0 c0.08 -0.06 0.18 -0.12 0.2 -0.22 c-0.14 0 -0.14 0.14 -0.2 0.22 z M23.239999999999995 24 c0.24 -0.02 0.34 -0.42 0.54 -0.6 c-0.22 0.06 -0.4 0.4 -0.54 0.6 z M23.599999999999998 23.8 c0.06 0 0.14 -0.12 0.08 -0.16 c-0.02 0.06 -0.08 0.08 -0.08 0.16 z M23.059999999999995 24.22 c0.1 0.08 0.26 -0.14 0.1 -0.16 c-0.02 0.06 -0.08 0.1 -0.1 0.16 z M23.379999999999995 24.1 l-0.02 0 c-0.02 0.02 -0.04 0.04 -0.04 0.08 c-0.06 0 0.04 0.1 0 0 c0.04 -0.02 0.06 -0.04 0.06 -0.08 c0.1 0.02 0 -0.06 0 0 z M22.939999999999998 24.36 c0.08 0 0.14 0 0.14 -0.08 c-0.06 -0.06 -0.12 0.02 -0.14 0.08 z M23.259999999999994 24.28 c0.02 0.08 0.02 -0.1 0 0 l0 0 z M22.939999999999998 24.42 c-0.02 0 -0.02 -0.02 -0.04 -0.02 c-0.06 0.02 0.04 0.08 0.04 0.02 z M23.119999999999997 24.44 c0 0.02 -0.02 -0.02 0 0 l0 0 z M23.059999999999995 24.52 c0.1 0.02 0.02 -0.08 0 0 l0 0 z M21.519999999999996 26.44 l-0.02 0 c-0.22 0.36 -0.42 0.6 -0.6 1 c-0.1 0.12 -0.22 0.36 -0.22 0.52 c0.1 -0.16 0.16 -0.34 0.22 -0.52 c0.3 -0.2 0.34 -0.66 0.62 -0.86 l0 -0.14 c0.24 -0.12 0.18 -0.4 0.42 -0.52 c0 -0.04 0 -0.08 -0.02 -0.12 c0.38 -0.32 0.66 -0.82 0.98 -1.28 c-0.54 0.54 -1 1.2 -1.38 1.92 z M26.279999999999998 24.58 c0.02 0.02 0 0 0 0 l0 0 z M22.959999999999997 24.64 c0.02 0 0 -0.02 0 0 l0 0 z M26.399999999999995 25.02 c-0.02 0.14 0.02 -0.1 0 0 l0 0 z M26.199999999999996 25.04 c0.04 0.08 0.06 -0.1 0 0 l0 0 z M26.399999999999995 25.16 c-0.06 0.08 0.08 -0.06 0 0 l0 0 z M26.379999999999995 25.28 c0.02 0.02 -0.02 -0.02 0 0 l0 0 z M26.019999999999996 26.08 l0.1 0 c-0.04 -0.18 0.12 -0.4 0.02 -0.58 c-0.06 0.18 -0.04 0.4 -0.12 0.58 z M26.299999999999997 25.8 c0 -0.04 0.08 -0.14 0 -0.16 c0.04 0.08 -0.06 0.14 0 0.16 z M25.939999999999998 26 c0.04 0.1 0.04 -0.1 0 0 l0 0 z M25.919999999999995 26.08 c0.02 0 0 -0.02 0 0 l0 0 z M26.019999999999996 26.259999999999998 c0.08 0 0.1 -0.16 0.02 -0.16 c-0.04 0.06 0 0.08 -0.02 0.16 z M26.199999999999996 26.22 c0.08 0.04 0.08 -0.1 0.04 -0.1 c0 0.04 -0.04 0.06 -0.04 0.1 z M25.919999999999995 26.28 c0.02 0.02 0 0 0 0 l0 0 z M22.079999999999995 26.34 l0 0.04 c0.04 0.08 0.08 -0.04 0.1 -0.06 c-0.04 -0.02 -0.06 0.02 -0.1 0.02 z M25.879999999999995 26.34 c-0.02 0.14 0 -0.1 0 0 l0 0 z M25.699999999999996 27.84 l-0.02 0 c-0.02 0.16 -0.08 0.2 -0.14 0.24 c0 0.1 0.08 -0.04 0.06 0.04 c-0.18 0.72 -0.34 1.48 -0.6 2.12 l-0.08 0 c0.02 -0.1 -0.08 0 0 0 c0 0.08 -0.14 -0.02 -0.1 0.08 c0.02 0.08 0.14 0 0.16 0.04 c-0.08 0.16 -0.1 0.38 -0.22 0.52 c-0.04 -0.08 -0.04 0.1 -0.14 0.02 c0 0.04 -0.1 0.14 -0.04 0.18 c0.02 -0.14 0.12 -0.1 0.18 -0.18 c0.02 0.08 0 0.2 -0.08 0.14 c0.12 0.18 -0.12 0.26 -0.1 0.48 c-0.06 0 -0.08 0 -0.08 0.04 c-0.06 0.06 0 0.26 -0.12 0.32 c-0.06 -0.02 -0.08 -0.1 -0.14 -0.12 c0.04 0.1 -0.1 0.14 -0.02 0.2 c0.04 -0.14 0.06 0 0.16 -0.06 c-0.2 0.14 0 0.42 -0.3 0.56 c0 0.08 0.08 -0.06 0.06 0.02 c-0.36 0.24 -0.42 0.78 -0.72 1.1 c0.06 0.02 0.08 -0.06 0.1 0 c-0.04 0.06 -0.06 0.1 -0.14 0.06 c-0.14 0.22 -0.32 0.38 -0.46 0.6 c-0.12 0.04 -0.18 0.12 -0.22 0.26 c0.16 0.02 0.16 -0.12 0.26 -0.14 c0.02 -0.08 -0.06 -0.06 -0.04 -0.12 c0.06 -0.02 0.06 0 0.1 0.02 c-0.02 -0.08 0.08 -0.24 0.14 -0.22 c0 0.04 -0.06 0.02 -0.04 0.1 c-0.04 0 0 0.02 0 0 c0.08 -0.04 0.14 -0.1 0.16 -0.2 c-0.04 -0.02 -0.08 0.08 -0.1 0 c0.18 -0.02 0.34 -0.2 0.38 -0.42 l0.06 0 c0.04 -0.12 0.24 -0.28 0.12 -0.4 c0.08 0 0.04 -0.14 0.12 -0.16 c0.04 0.06 -0.06 0.12 0 0.14 c0.54 -0.92 0.88 -1.92 1.3 -3 c0 0.02 0.02 0.04 0.04 0.06 c0.06 -0.08 0.02 -0.08 0.08 -0.16 c-0.08 0 -0.08 0.08 -0.12 0.1 c0.14 -0.68 0.42 -1.5 0.54 -2.26 c0.16 -0.5 0.24 -0.96 0.34 -1.52 c-0.16 0.08 0 0.48 -0.22 0.52 c0.14 0.26 -0.12 0.64 -0.12 1 z M26.179999999999996 26.44 c0.08 0.02 0.08 -0.16 0 -0.12 l0 0.12 z M26.079999999999995 26.82 c0.1 0.02 0.02 -0.08 0 0 l0 0 z M26.059999999999995 26.96 c0.08 0 0.1 -0.1 0.02 -0.1 c0 0.04 -0.02 0.04 -0.02 0.1 z M21.019999999999996 26.96 c0.08 0.08 0.04 -0.08 0 0 l0 0 z M25.679999999999996 27.28 c0.06 0 0.08 -0.04 0.08 -0.1 c-0.06 -0.02 -0.08 0.02 -0.08 0.1 z M25.919999999999995 27.58 c0.08 0.02 0.06 -0.06 0.1 -0.1 c-0.04 0 -0.04 -0.02 -0.08 -0.02 c0.02 0.06 0 0.1 -0.02 0.12 z M25.639999999999997 27.64 l0.04 0 l0 -0.06 l-0.04 0 l0 0.06 z M25.839999999999996 27.6 c0.02 0.02 0 0 0 0 l0 0 z M25.579999999999995 27.64 c0.04 0.08 0.04 -0.1 0 0 l0 0 z M21.259999999999998 27.7 l0.08 0 c0 -0.04 -0.02 -0.06 -0.08 -0.04 l0 0.04 z M25.919999999999995 27.68 c0.02 0.1 0.02 -0.1 0 0 l0 0 z M25.559999999999995 27.7 c0.02 0.02 0 0 0 0 l0 0 z M21.199999999999996 27.94 c0 -0.06 0.16 -0.18 0.04 -0.22 c0 0.08 -0.1 0.16 -0.04 0.22 z M25.519999999999996 27.84 c0.06 0.04 0.06 -0.1 0.02 -0.08 c0 0.04 -0.02 0.04 -0.02 0.08 z M21.319999999999997 27.8 c0.02 0.1 0.02 -0.1 0 0 l0 0 z M20.539999999999996 28.08 c0.08 0.02 0.1 -0.04 0.1 -0.08 c-0.08 -0.02 -0.06 0.06 -0.1 0.08 z M21.079999999999995 28.14 c0 -0.04 0.1 -0.14 0 -0.14 c0.02 0.06 -0.08 0.1 0 0.14 z M25.839999999999996 28.02 c0.04 0.08 0.06 -0.1 0 0 l0 0 z M25.459999999999997 28.04 c0.04 0.1 0.04 -0.1 0 0 l0 0 z M25.819999999999997 28.14 c0.02 0.02 0 -0.02 0 0 l0 0 z M20.999999999999996 28.18 c0.02 0.1 0.02 -0.1 0 0 l0 0 z M25.479999999999997 28.259999999999998 c0.02 0.02 0 -0.02 0 0 l0 0 z M25.799999999999997 28.28 c0.02 0.1 0.02 -0.1 0 0 l0 0 z M20.879999999999995 28.4 c0.02 0 0.04 0.02 0.04 0.02 c0 -0.04 0.02 -0.08 -0.04 -0.06 l0 0.04 z M20.419999999999995 28.4 c0.02 0.02 0 -0.02 0 0 l0 0 z M25.679999999999996 28.4 c0.02 0.02 0 -0.02 0 0 l0 0 z M25.399999999999995 28.42 c0 0.02 -0.02 0 0 0 l0 0 z M25.339999999999996 28.48 l0 0.04 c0.06 0.04 0.08 -0.08 0.02 -0.08 c0 0.02 0 0.04 -0.02 0.04 z M20.279999999999998 28.72 c0 -0.06 0.12 -0.12 0.04 -0.16 c0 0.04 -0.12 0.1 -0.04 0.16 z M25.299999999999997 28.72 c0.08 0.02 0.04 -0.08 0.06 -0.1 c-0.06 -0.02 -0.06 0.04 -0.06 0.1 z M25.679999999999996 28.68 c0.02 0.1 0.02 -0.08 0 0 l0 0 z M25.659999999999997 28.8 c0.02 0.1 0.02 -0.08 0 0 l0 0 z M25.579999999999995 29.08 c0.04 0.08 0.04 -0.1 0 0 l0 0 z M25.199999999999996 29.1 l0 0.02 c-0.06 0.14 0.12 -0.14 0 -0.02 z M25.479999999999997 29.14 l-0.02 0 c0.02 0.02 0 0.02 -0.02 0.02 l0 0.06 c0.06 0 0.04 -0.04 0.04 -0.08 c0.04 -0.02 0 -0.02 0 0 z M25.179999999999996 29.240000000000002 l0.04 0 l0 -0.04 l-0.04 0 l0 0.04 z M25.539999999999996 29.22 c0.02 0.02 -0.02 -0.02 0 0 l0 0 z M25.419999999999995 29.46 c-0.02 -0.06 0.08 -0.1 -0.02 -0.1 c0 0.04 -0.02 0.08 0.02 0.1 z M25.479999999999997 29.380000000000003 c0.04 0.1 0.04 -0.1 0 0 l0 0 z M25.099999999999994 29.52 c0.08 0 0.1 -0.14 0.02 -0.14 c-0.02 0.04 -0.02 0.08 -0.02 0.14 z M25.439999999999998 29.52 c0.02 0.1 0.02 -0.08 0 0 l0 0 z M25.339999999999996 29.58 c-0.08 0.1 0.06 -0.08 0 0 l0 0 z M25.059999999999995 29.619999999999997 c-0.06 0.08 0.08 -0.06 0 0 l0 0 z M25.419999999999995 29.619999999999997 c0.02 0.02 -0.02 0 0 0 l0 0 z M25.039999999999996 29.740000000000002 c0.02 0.1 0.02 -0.1 0 0 l0 0 z M24.999999999999996 29.82 c-0.04 0.08 0.1 -0.06 0 0 l0 0 z M24.939999999999998 30.04 c0.02 0.08 0.02 -0.1 0 0 l0 0 z M25.159999999999997 30.32 c0 -0.02 0 -0.02 0.02 -0.02 c0 -0.04 0 -0.06 -0.06 -0.06 c0.02 0.04 0 0.08 0.04 0.08 z M25.059999999999995 30.52 c0.08 0.02 0.1 -0.14 0.04 -0.16 c-0.02 0.06 -0.04 0.1 -0.04 0.16 z M24.799999999999997 30.42 c0 0.02 -0.02 -0.02 0 0 l0 0 z M24.859999999999996 30.439999999999998 c0.02 0.02 0 -0.02 0 0 l0 0 z M24.839999999999996 30.560000000000002 c0.02 0.02 0 -0.02 0 0 l0 0 z M19.719999999999995 30.84 c0 -0.1 0.14 -0.24 0.04 -0.28 c-0.02 0.08 -0.1 0.2 -0.04 0.28 z M24.759999999999998 30.66 c0.02 0.02 0 -0.02 0 0 l0 0 z M25.079999999999995 30.68 l0.04 0 l0 -0.04 l-0.04 0 l0 0.04 z M24.959999999999997 30.84 c-0.04 0.04 -0.1 0.16 -0.04 0.2 c0.02 -0.06 0.06 -0.1 0.04 -0.2 l0.02 0 c0.02 0 0.06 -0.1 0 -0.12 c0.02 0.06 -0.04 0.06 -0.02 0.12 z M19.599999999999994 31.119999999999997 c-0.06 0 0.04 0.1 0 0 c0.06 -0.04 0.08 -0.12 0.08 -0.2 c-0.08 0 -0.06 0.1 -0.08 0.2 z M24.619999999999997 31.14 c0.02 0.02 0 -0.02 0 0 l0 0 z M24.459999999999997 31.3 c0.06 0.02 0.1 -0.14 0.04 -0.16 c0 0.06 -0.02 0.1 -0.04 0.16 z M24.599999999999998 31.259999999999998 c0 -0.02 0.06 -0.1 0 -0.1 c0.02 0.04 -0.08 0.08 0 0.1 z M24.819999999999997 31.2 c0.02 0.1 0.02 -0.08 0 0 l0 0 z M24.799999999999997 31.28 c-0.02 0.14 0 -0.1 0 0 l0 0 z M24.339999999999996 31.68 c0.04 -0.08 0.06 -0.16 0.1 -0.24 c-0.1 0.02 -0.2 0.2 -0.1 0.24 z M24.099999999999998 32.2 l-0.02 0 c-0.02 0 -0.06 0.08 0 0.08 c0.02 -0.02 0.02 -0.04 0.02 -0.08 c0.04 -0.06 0.18 -0.16 0.06 -0.2 c0.04 0.12 -0.08 0.08 -0.06 0.2 z M23.959999999999997 32.44 c0.04 0 0.1 -0.1 0.04 -0.1 c-0.02 0.04 -0.04 0.06 -0.04 0.1 z M23.799999999999997 32.74 c0.02 -0.02 0.1 -0.08 0.04 -0.12 c0.02 0.06 -0.1 0.08 -0.04 0.12 z M23.739999999999995 32.88 c0.04 0.02 0.1 -0.06 0.04 -0.06 c0 0.02 -0.04 0.04 -0.04 0.06 z M23.599999999999998 33.12 c0.06 0.02 0.14 -0.12 0.04 -0.12 c0 0.06 -0.04 0.08 -0.04 0.12 z M23.519999999999996 33.22 l0.04 0 l0 -0.04 l-0.04 0 l0 0.04 z M23.479999999999997 33.42 c0 -0.06 0.02 -0.06 0.04 -0.14 c-0.08 -0.02 -0.14 0.12 -0.04 0.14 z M23.379999999999995 33.46 c0.04 0.08 0.06 -0.1 0 0 l0 0 z M23.259999999999994 33.72 c0.02 -0.06 0.06 -0.08 0.1 -0.14 c-0.04 0 -0.06 -0.04 -0.1 -0.02 c0.02 0.08 -0.12 0.12 0 0.16 z M23.659999999999997 33.6 c0.02 0.02 0 0 0 0 l0 0 z M22.999999999999996 34.019999999999996 c0.04 -0.1 0.22 -0.16 0.16 -0.26 c-0.04 0.08 -0.22 0.16 -0.16 0.26 z M23.279999999999998 34.12 c0.04 0.08 0.06 -0.1 0 0 l0 0 z M22.179999999999996 34.76 l-0.06 0 l0 0.04 c0.06 0.02 0.06 -0.02 0.06 -0.04 c0.16 -0.08 0.3 -0.18 0.36 -0.36 c-0.14 0.1 -0.24 0.24 -0.36 0.36 z M21.379999999999995 34.92 c-0.52 0.22 -0.92 0.04 -1.38 -0.06 c0.22 0.3 1 0.34 1.38 0.06 z M31.039999999999996 16.96 c-0.02 0.08 -0.14 0.06 -0.18 0.14 c-0.04 -0.06 0.04 -0.18 0.18 -0.14 z M30.58 17.32 c0.06 -0.08 0.18 -0.22 0.24 -0.2 c-0.06 0.1 -0.14 0.16 -0.24 0.2 z M30.58 17.32 c-0.02 0.06 -0.08 0.1 -0.14 0.12 c0.04 -0.06 0.04 -0.12 0.14 -0.12 z M28.539999999999996 19.12 l0.04 0 l0 0.04 c-0.02 0 -0.02 0 -0.02 0.02 l-0.04 0 l0 -0.04 c0.02 0 0.02 -0.02 0.02 -0.02 z M25.939999999999998 21 c0.02 -0.06 0.1 0.04 0 0 l0 0 z M25.899999999999995 21.56 c0 -0.04 0 -0.08 0.04 -0.08 c0 0.04 -0.02 0.06 -0.04 0.08 z M25.599999999999994 21.84 c0.06 -0.08 0.04 0.08 0 0 l0 0 z M25.559999999999995 21.9 c0 0.12 -0.12 0.1 -0.14 0.22 c-0.06 -0.08 0.06 -0.2 0.14 -0.22 z M25.179999999999996 22.5 c0.02 0 0.02 0 0.02 -0.02 c-0.02 -0.02 -0.02 0 -0.02 0.02 z M23.799999999999997 23.98 c0.02 0.06 -0.02 0.08 -0.06 0.1 c0 -0.06 0.04 -0.08 0.06 -0.1 z M23.719999999999995 24.1 c0 -0.02 0 -0.02 0.02 -0.02 c0 0.02 0 0.02 -0.02 0.02 z M23.719999999999995 24.1 c0 0.04 -0.04 0.02 0 0 l0 0 z M23.639999999999997 24.16 c0.02 0.1 -0.12 0.24 -0.22 0.3 c0.06 -0.12 0.16 -0.2 0.22 -0.3 z M22.699999999999996 25.42 c0.2 -0.3 0.46 -0.68 0.68 -0.88 c-0.2 0.32 -0.4 0.64 -0.68 0.88 z M22.119999999999997 26.12 l0 0 c0.02 0.02 0 -0.02 0 0 z M21.619999999999997 27 c0.12 0.04 0 0.12 -0.02 0.18 c-0.08 -0.06 0.02 -0.12 0.02 -0.18 z M21.499999999999996 27.18 c0.08 0.06 -0.04 0.12 -0.04 0.18 c-0.12 -0.04 0.02 -0.12 0.04 -0.18 z M24.499999999999996 31.560000000000002 c0.04 0 0.02 0.04 0 0 l0 0 z M23.879999999999995 32.84 c0.06 -0.1 0.04 0.08 0 0 l0 0 z M23.559999999999995 33.519999999999996 c-0.04 0 -0.04 -0.02 -0.02 -0.06 c0.02 0 0.04 0.02 0.02 0.06 z M23.319999999999997 33.82 l0 0 c0.04 -0.02 0 -0.02 0 0 z M23.319999999999997 33.82 c0 0.1 -0.1 0 0 0 l0 0 z M37.529999999999994 16.68 c0.04 0.1 0.1 0.48 -0.16 0.56 c0.08 0.22 -0.22 0.34 -0.04 0.44 c0.08 -0.06 -0.06 -0.22 0.12 -0.2 c-0.08 0.16 -0.04 0.46 -0.2 0.54 c0.08 0.22 0 0.5 -0.12 0.68 c0.04 0.08 0.04 -0.08 0.1 0 c-0.16 0.26 -0.02 0.6 -0.24 0.74 c0.02 0.06 0.04 -0.08 0.1 0 c-0.02 0.3 -0.12 0.42 -0.04 0.68 l-0.06 0 c-0.04 0.5 -0.02 1.14 -0.1 1.76 c0.06 0.1 0.1 0.24 0.04 0.36 c0 0.08 0.08 0.06 0.08 0.12 c-0.02 0.02 -0.04 0 -0.04 0.04 c0 0.24 0.04 0.62 0.18 0.66 c0.06 0.38 0.3 0.88 0.7 0.92 c0.36 -0.06 0.64 -0.3 0.88 -0.5 c1.48 -1.2 2.38 -3.14 3.2 -5.02 c0.02 -0.24 0.1 -0.54 0.16 -0.8 c0.1 0.06 0.2 0.12 0.28 0.2 c-0.1 0.2 0.12 0.4 0.06 0.58 c0 0.02 0.04 0.02 0.08 0.02 c-0.02 0.12 -0.04 0.2 -0.08 0.3 c0.1 0.02 0.02 -0.14 0.12 -0.12 c0 0.06 0.04 0.08 0.02 0.16 c0.08 0 0.08 -0.06 0.08 -0.12 c0.06 0 0.04 0.08 0.04 0.14 c-0.02 0.02 -0.06 0.02 -0.12 0.02 c-0.52 1.08 -1.02 2.14 -1.7 3.08 c0.06 0.06 -0.02 0.1 0 0.2 c0.12 -0.02 0.18 -0.1 0.24 -0.18 c0 -0.04 -0.02 0 -0.06 0 c0.24 -0.32 0.52 -0.68 0.72 -1.1 c0.14 0.12 -0.14 0.28 -0.06 0.42 c-0.36 0.14 -0.24 0.88 -0.6 0.96 c0 0.14 -0.08 0.18 -0.12 0.3 c-0.04 0.02 -0.1 0.02 -0.14 0.06 c-0.2 0.5 -0.62 0.76 -0.88 1.18 c-0.24 -0.02 -0.24 0.2 -0.44 0.22 c-0.36 0.6 -1.72 0.76 -2.18 0.18 c-0.1 0.06 0.14 0.14 0.06 0.18 c-0.22 -0.18 -0.44 -0.38 -0.72 -0.5 c-0.2 -0.3 -0.34 -0.66 -0.52 -1 c-0.2 -1.08 -0.12 -2.2 -0.04 -3.14 c0.02 -0.34 0.08 -0.88 0.18 -1.1 c0 -0.9 0.34 -1.68 0.46 -2.52 c0.04 -0.08 0.04 -0.22 0.12 -0.26 c0 -0.04 0 -0.06 -0.04 -0.06 c0.1 -0.24 0.22 -0.6 0.24 -0.88 c0.02 0 0.02 -0.06 0.06 -0.04 c0.02 -0.42 0.28 -0.74 0.34 -1.16 c0.04 0 0.04 -0.04 0.08 -0.02 c0 -0.3 0.12 -0.48 0.24 -0.68 l0 -0.14 c0.28 -0.4 0.36 -0.98 0.66 -1.32 c0.02 -0.06 -0.04 -0.06 -0.02 -0.12 c0.24 -0.28 0.32 -0.72 0.62 -0.94 c0 -0.1 0.04 -0.1 0 -0.16 c0.8 -0.92 1.32 -2.2 2.86 -2.3 c0.06 0 0.04 -0.06 0.1 -0.06 c0.5 -0.02 0.76 0.22 1.06 0.42 l0 0.08 c0.4 0.46 0.56 1.64 0.06 2.08 c-0.1 -0.02 -0.12 0.04 -0.24 0.02 c-0.4 -0.48 -0.28 -1.5 -0.74 -1.9 c-1.26 0.66 -1.94 2.08 -2.8 3.22 c0 0.08 -0.02 0.1 -0.04 0.16 c-0.12 -0.02 -0.08 0.1 -0.16 0.12 c0.1 0.3 -0.32 0.56 -0.34 0.82 c-0.06 0.04 -0.08 -0.02 -0.14 0.04 c-0.02 0.08 0.08 0.04 0.1 0.08 c-0.1 0.14 -0.12 0.36 -0.32 0.46 c0 0.08 0.12 0.12 0.06 0.22 c-0.1 -0.02 0 -0.08 -0.06 -0.08 c-0.08 0 -0.06 0.12 -0.1 0.16 c0.02 0.1 0.1 -0.08 0.1 0 c-0.08 0.1 -0.06 0.18 -0.16 0.28 c0.04 0 0.04 -0.04 0.1 -0.04 c-0.2 0.48 -0.34 1.06 -0.58 1.54 c0.04 0.08 0.02 -0.1 0.1 -0.06 c-0.04 0.06 -0.06 0.1 -0.06 0.2 c-0.04 0.02 -0.12 -0.02 -0.12 0.04 c0.18 0.12 -0.04 0.38 -0.06 0.62 c-0.06 0 -0.06 -0.04 -0.12 -0.02 c0.06 0.1 0.1 0.08 0.08 0.24 c-0.06 0.02 -0.04 -0.08 -0.08 -0.08 c-0.06 0 -0.02 0.08 -0.04 0.12 z M39.87 9.84 c0 -0.04 0.08 -0.14 0 -0.12 c0 0.04 -0.08 0.1 0 0.12 z M39.61 10.08 c-0.08 0.02 -0.08 0.08 -0.06 0.14 c-0.02 0.02 -0.08 0.02 -0.12 0.06 c-1.32 1.88 -2.14 4.1 -2.74 6.62 c0.08 0.1 -0.1 0.26 -0.02 0.38 c-0.06 0.08 -0.1 0.2 -0.1 0.36 c0 0.06 -0.08 0.04 -0.06 0.12 c0.02 0.02 0.08 0 0.06 0.08 c-0.04 0 -0.02 0.06 -0.08 0.04 c-0.12 0.68 -0.24 1.4 -0.28 2 c0 0.06 0.08 -0.08 0.08 0.02 c-0.06 0.06 0.04 0.14 -0.04 0.16 c-0.06 -0.02 0.04 -0.08 -0.04 -0.12 c-0.02 0.3 -0.12 0.72 -0.02 0.96 c-0.04 0.04 -0.1 0.2 -0.02 0.22 c-0.02 -0.14 0.06 -0.06 0.1 -0.1 c0 -0.42 0.1 -0.58 0.04 -1.1 c0.02 -0.08 0.06 -0.12 0.1 -0.2 c-0.04 0 -0.06 -0.02 -0.08 -0.04 c0.1 -0.08 0.1 -0.24 0.12 -0.36 c-0.08 -0.04 0 0.1 -0.08 0.08 c0.1 -0.16 0.1 -0.26 0.06 -0.44 c0.02 0 0.02 0.04 0.06 0.04 c0.02 -0.2 -0.02 -0.28 0.04 -0.5 c0.02 0 0.02 0.04 0.04 0.06 c0.02 -0.46 0.18 -0.88 0.18 -1.3 c0.12 -0.14 0.08 -0.32 0.12 -0.46 c0.48 -2.02 1.2 -4.06 2.18 -5.74 c-0.04 0 -0.02 -0.06 -0.02 -0.1 c0.14 0 0.28 -0.3 0.28 -0.44 c0.2 -0.04 0.26 -0.24 0.3 -0.44 c0.06 0 -0.04 -0.1 0 0 z M39.209999999999994 11.26 c0.02 -0.02 0.06 -0.1 0 -0.1 c0 0.02 -0.06 0.1 0 0.1 z M38.92999999999999 11.8 c0.04 -0.18 0.24 -0.3 0.2 -0.5 c-0.04 0.18 -0.3 0.38 -0.2 0.5 z M38.849999999999994 11.9 l0.06 0 l0 -0.04 l-0.06 0 l0 0.04 z M38.83 12.08 c-0.02 -0.08 0.04 -0.08 0.02 -0.16 l-0.06 0 c0 0.06 -0.02 0.14 0.04 0.16 z M38.669999999999995 12.16 c0.04 0.02 0.14 -0.02 0.12 0.06 c0.06 0 0.08 -0.04 0.1 -0.08 c-0.1 0 -0.1 -0.1 -0.2 -0.1 c0.02 0.08 -0.04 0.06 -0.02 0.12 z M38.47 12.86 c-0.04 0.02 0 0.04 0 0 c0.08 -0.02 0.08 -0.14 0.08 -0.26 c0.06 0 0.04 0.04 0.1 0 c0 -0.12 0.1 -0.18 -0.04 -0.24 c0.06 -0.04 0.2 0 0.2 -0.08 c-0.08 -0.02 -0.12 -0.06 -0.22 -0.06 c-0.02 0.12 -0.08 0.18 0.02 0.26 c-0.04 0.04 -0.06 -0.02 -0.14 0.02 c0 0.14 -0.12 0.14 -0.1 0.3 c0.08 -0.02 0.12 -0.02 0.1 0.06 z M38.949999999999996 12.620000000000001 l0.06 0 l0 -0.04 l-0.06 0 l0 0.04 z M38.28999999999999 13.04 c0.02 -0.04 0.08 -0.06 0.14 -0.06 c-0.04 -0.04 -0.04 -0.1 -0.1 -0.12 c0.06 0.12 -0.12 0.12 -0.04 0.18 z M38.129999999999995 13.34 c-0.06 0 -0.22 0.34 -0.06 0.44 c0.06 -0.14 -0.02 -0.28 0.12 -0.3 c0 -0.06 -0.04 -0.06 -0.02 -0.14 c0.04 0.08 0.12 0.02 0.14 -0.06 c-0.06 -0.04 -0.08 0.08 -0.1 0.02 c-0.08 -0.06 0.14 -0.18 0 -0.22 c0 0.1 -0.1 0.12 -0.08 0.26 z M37.88999999999999 13.82 c0.02 0.06 0.04 0.1 0.08 0.12 c-0.02 -0.1 0.1 -0.04 0.08 -0.14 c-0.08 0.04 -0.1 -0.02 -0.16 0.02 z M37.949999999999996 14.16 c-0.02 -0.06 0.04 -0.18 -0.06 -0.16 c0 0.08 -0.1 0.16 0.06 0.16 z M37.769999999999996 14.24 c0.02 -0.04 0.06 -0.06 0 -0.08 c0 0.02 -0.04 0.06 0 0.08 z M37.60999999999999 14.68 c-0.06 0.1 -0.16 0.26 -0.1 0.4 c0.04 -0.02 0 -0.12 0.08 -0.1 c0 0.04 -0.04 0.04 -0.02 0.1 c0.08 -0.02 0.1 -0.12 0.08 -0.22 c-0.04 -0.02 -0.06 0.04 -0.06 0 c0.02 -0.04 0.02 -0.12 0.02 -0.18 c0.1 0 0 0.02 0.02 0.08 c0.16 -0.06 0.12 -0.28 0.22 -0.34 c0 -0.06 -0.02 -0.1 -0.08 -0.12 c0 0.04 -0.02 0 -0.04 0 c-0.06 0.1 -0.1 0.24 -0.12 0.38 z M38.06999999999999 14.5 c0.02 -0.02 0.06 -0.12 -0.02 -0.1 c0 0.04 -0.02 0.08 0.02 0.1 z M37.97 15.14 c0.04 -0.1 0.2 -0.3 0.1 -0.38 c0 0.14 -0.16 0.26 -0.1 0.38 z M37.97 14.86 c0.02 0.08 0.02 -0.1 0 0 l0 0 z M37.24999999999999 15.96 c0.08 -0.26 0.22 -0.6 0.22 -0.86 c-0.08 0.28 -0.22 0.58 -0.22 0.86 z M37.489999999999995 15.6 c0.1 -0.02 0 -0.08 0 -0.14 c0.04 -0.12 0.16 -0.16 0.14 -0.34 c-0.04 0 -0.08 0 -0.1 -0.02 c0.06 0.12 -0.2 0.36 -0.04 0.5 z M37.849999999999994 15.219999999999999 l0 0.04 c0.06 0.04 0.08 -0.08 0.02 -0.06 c0 0 0 0.02 -0.02 0.02 z M37.60999999999999 15.68 c0.02 0.08 0.02 -0.1 0 0 l0 0 z M37.37 15.84 c0.08 0.04 0.06 -0.12 0.02 -0.12 c0.02 0.06 -0.04 0.06 -0.02 0.12 z M37.589999999999996 15.940000000000001 c-0.04 -0.08 0.06 -0.14 0 -0.18 c-0.06 0.04 -0.06 0.12 0 0.18 z M37.769999999999996 15.96 c0 -0.02 -0.04 -0.04 -0.04 0 c0.02 0 0.04 0.04 0.04 0 z M37.51 16.16 c0.02 -0.06 0.1 -0.16 0.02 -0.2 c0 0.06 -0.1 0.14 -0.02 0.2 z M36.55 19.3 c0.2 -1 0.32 -2 0.66 -2.86 c0 -0.14 0.02 -0.14 0 -0.26 c0.04 -0.06 0.14 -0.04 0.12 -0.14 c-0.08 0 -0.08 -0.04 -0.12 -0.04 c-0.28 1.22 -0.64 2.16 -0.66 3.3 z M37.709999999999994 16.16 c-0.02 -0.08 0.02 -0.08 0.02 -0.12 l-0.08 0 c0 0.04 0 0.1 0.06 0.12 z M37.629999999999995 16.22 l0.06 0 l0 -0.04 l-0.06 0 l0 0.04 z M37.41 16.42 c0 0.18 0.06 -0.08 0 0 l0 0 z M37.38999999999999 16.54 c0.04 0.08 0.04 -0.1 0 0 l0 0 z M37.169999999999995 16.68 c0 -0.06 0.1 -0.02 0.08 -0.1 c-0.04 0 -0.06 0 -0.08 -0.02 c0.02 0.04 -0.06 0.1 0 0.12 z M37.24999999999999 16.94 c-0.02 0 -0.06 -0.04 -0.08 0 c0.08 0.04 -0.14 0.32 0.04 0.38 c0.02 -0.24 0.18 -0.42 0.12 -0.64 c-0.06 0.1 -0.06 0.18 -0.08 0.26 z M37.41 17.12 c0.08 -0.04 0.12 -0.22 0.08 -0.3 c-0.04 0.08 -0.04 0.2 -0.08 0.3 z M37.10999999999999 17.56 c0.06 0.02 0.12 -0.2 0.02 -0.2 c-0.04 0.04 0.02 0.14 -0.02 0.2 z M36.989999999999995 17.44 c0.02 0.1 0.02 -0.08 0 0 l0 0 z M36.97 17.62 c0.02 0 0.04 0 0.06 0.02 c0 -0.06 -0.04 -0.08 0 -0.12 c-0.06 0 -0.08 0.04 -0.06 0.1 z M37.05 17.86 c-0.16 0 -0.08 0.26 -0.18 0.3 c0.02 0 0.06 0 0.06 0.04 c-0.02 0.04 -0.14 0.22 0 0.24 c0.04 -0.22 0.06 -0.3 0.08 -0.54 c0.08 0.06 0.14 -0.2 0.1 -0.26 c-0.04 0.06 -0.06 0.12 -0.06 0.22 z M37.01 17.740000000000002 c0.02 0 -0.02 -0.02 0 0 l0 0 z M36.769999999999996 19.22 c-0.02 0.1 -0.14 0.24 0 0.3 c0 -0.4 0.14 -0.64 0.1 -1.02 c-0.04 0.26 -0.1 0.5 -0.1 0.72 z M36.529999999999994 18.62 c0.02 0.02 -0.02 0 0 0 l0 0 z M37.10999999999999 18.76 c0.02 0.1 0.02 -0.08 0 0 l0 0 z M37.089999999999996 18.88 c0 0.02 -0.02 0 0 0 l0 0 z M42.15 18.94 c0.02 0 -0.02 -0.02 0 0 l0 0 z M42.38999999999999 19.06 c0.02 0 -0.02 -0.02 0 0 l0 0 z M37.01 19.28 l0.04 0 l0 -0.06 l-0.04 0 l0 0.06 z M37.01 19.32 c0.02 0.1 0.02 -0.1 0 0 l0 0 z M36.42999999999999 19.78 c0.06 -0.08 0.1 -0.32 0.08 -0.42 c-0.04 0.14 -0.08 0.26 -0.08 0.42 z M42.15 19.4 c-0.14 0 -0.04 0.32 -0.2 0.24 c0 0.08 -0.04 0.1 0 0.18 c0.14 -0.04 0.18 -0.2 0.14 -0.34 c0.04 0.02 0.04 0.04 0.08 0.06 c0.02 -0.08 -0.02 -0.1 -0.02 -0.14 c0.04 -0.02 0 -0.04 0 0 z M36.989999999999995 19.54 c-0.02 0.14 0 -0.1 0 0 l0 0 z M36.69 19.78 c-0.06 0.08 0.08 -0.06 0 0 l0 0 z M36.92999999999999 19.9 l0.06 0 l0 -0.06 l-0.06 0 l0 0.06 z M41.91 20.02 c0.02 -0.02 0.1 -0.16 0 -0.14 c0.02 0.06 -0.06 0.12 0 0.14 z M36.69 19.9 c-0.02 0 -0.04 0 -0.04 0.02 c0.02 0 0.04 0 0.04 -0.02 z M36.91 20.06 c-0.02 0.14 0.02 -0.1 0 0 l0 0 z M36.65 20.12 c-0.02 0.14 0.02 -0.1 0 0 l0 0 z M36.41 20.16 c0.02 0.02 -0.02 -0.02 0 0 l0 0 z M41.589999999999996 20.52 c0.12 -0.02 0.24 -0.26 0.12 -0.36 c-0.06 0.14 -0.08 0.2 -0.12 0.36 z M36.88999999999999 20.2 c0.02 0.1 0.02 -0.08 0 0 l0 0 z M36.38999999999999 20.26 c-0.02 0.14 0 -0.1 0 0 l0 0 z M36.849999999999994 20.32 c0.02 0.1 0.02 -0.08 0 0 l0 0 z M36.56999999999999 20.38 c0.04 0.08 0.04 -0.1 0 0 l0 0 z M36.37 20.4 c0.02 0.1 0.02 -0.1 0 0 l0 0 z M41.55 20.62 c0.02 0 -0.02 -0.02 0 0 l0 0 z M36.51 20.64 c0.02 0.02 -0.02 -0.02 0 0 l0 0 z M41.489999999999995 20.74 c0 -0.02 0.02 -0.04 0.04 -0.02 c-0.02 -0.04 -0.02 -0.06 -0.06 -0.06 c0 0.04 0 0.08 0.02 0.08 z M36.56999999999999 20.72 c-0.02 0.12 0.12 0 0 0 l0 0 z M36.42999999999999 20.86 c0.02 0 0.04 0.02 0.06 0.02 c-0.02 -0.04 0 -0.08 -0.06 -0.08 l0 0.06 z M41.33 20.9 c0.06 0.02 0.04 -0.04 0.08 -0.06 l-0.08 0 l0 0.06 z M41.309999999999995 21.1 c0.02 -0.06 0.06 -0.1 0.06 -0.18 l-0.06 0 c0.02 0.1 -0.12 0.14 0 0.18 z M36.56999999999999 21.02 c0.02 0.02 0 0 0 0 l0 0 z M36.169999999999995 21.32 l0 -0.08 c-0.08 -0.04 -0.08 0.1 0 0.08 c0 0.04 -0.04 0.04 -0.02 0.12 c0.04 -0.02 0.04 0.02 0.1 0.02 c-0.06 -0.14 0.06 -0.26 -0.04 -0.38 c-0.06 0.06 0.02 0.16 -0.04 0.24 z M41.19 21.16 c0.02 0.02 -0.02 0 0 0 l0 0 z M36.41 21.28 c0.08 0.02 0.1 -0.1 0.02 -0.12 c0.02 0.06 -0.04 0.06 -0.02 0.12 z M41.129999999999995 21.32 c0.08 0.02 0.08 -0.12 0 -0.08 l0 0.08 z M40.989999999999995 21.52 c0.08 0.04 0.08 -0.16 0 -0.12 l0 0.12 z M36.24999999999999 21.64 c0 -0.06 -0.02 -0.1 -0.06 -0.12 c0.02 0.06 -0.02 0.16 0.06 0.12 z M36.489999999999995 21.68 c-0.02 -0.08 -0.04 -0.1 -0.1 -0.1 c0 0.04 0.02 0.1 0.1 0.1 z M36.169999999999995 21.84 c-0.04 -0.04 0 -0.26 -0.04 -0.22 c0.02 0.06 -0.06 0.22 0.04 0.22 z M36.73 21.68 c0 0 -0.02 -0.02 0 0 l0 0 z M41.349999999999994 21.76 c0.02 -0.04 0 -0.08 -0.04 -0.08 c0 0.04 -0.02 0.12 0.04 0.08 z M40.849999999999994 21.74 c0.02 0.02 -0.02 0 0 0 l0 0 z M36.24999999999999 21.98 c-0.04 -0.08 0.02 -0.12 -0.06 -0.18 c0.02 0.1 -0.06 0.16 0.06 0.18 z M36.73 21.82 c-0.04 0.14 0.1 0 0 0 l0 0 z M41.19 22.1 c-0.02 -0.08 0.14 -0.18 0 -0.18 c0 0.04 -0.06 0.14 0 0.18 z M40.809999999999995 22.1 c0 -0.04 0.02 -0.06 0.04 -0.1 c-0.06 -0.02 -0.1 0.1 -0.04 0.1 z M36.169999999999995 22.22 c0 0.18 0.06 -0.08 0 0 l0 0 z M40.849999999999994 22.2 c-0.02 0.14 0.1 0 0 0 l0 0 z M36.449999999999996 22.36 c0.02 0.02 0 0 0 0 l0 0 z M36.19 22.44 c0.02 0.02 0 -0.02 0 0 l0 0 z M36.489999999999995 22.54 c0 -0.04 -0.06 -0.04 -0.06 0 c0.04 0 0.04 0.02 0.06 0 z M40.489999999999995 22.72 c0 -0.08 0.12 -0.06 0.1 -0.16 c-0.08 0 -0.2 0.12 -0.1 0.16 z M40.349999999999994 22.9 c0.06 -0.02 0.14 -0.16 0.06 -0.18 c0.02 0.1 -0.08 0.06 -0.06 0.18 z M36.56999999999999 23.2 c0.02 0.02 0 0 0 0 l0 0 z M36.60999999999999 23.32 c0 0.02 -0.02 0 0 0 l0 0 z M39.169999999999995 10.78 l0 0 c0.02 0 -0.02 -0.02 0 0 z M38.449999999999996 12.68 c0.04 0.02 0.1 0.04 0.04 0.08 c-0.02 0 -0.04 -0.04 -0.04 -0.08 z M37.73 14.379999999999999 c0.06 -0.1 0.04 0.08 0 0 l0 0 z M37.56999999999999 15.24 l0 0 c0 0.02 -0.02 -0.02 0 0 z M37.05 15.8 c0.04 -0.1 0.04 0.08 0 0 l0 0 z M37.529999999999994 16.68 c0.04 0 0.06 0 0.08 0.02 c0 0.04 -0.06 0.02 -0.08 0 l0 -0.02 z M37.449999999999996 17.259999999999998 c0.06 0 0 0.08 0 0.1 c-0.06 -0.02 -0.02 -0.1 0 -0.1 z M36.51 17.98 c0.02 -0.1 0.02 0.08 0 0 l0 0 z M36.489999999999995 18.12 l0 0 c0 0.02 -0.02 -0.02 0 0 z M36.42999999999999 18.48 l0 0 c0.02 0.02 0 -0.02 0 0 z M42.56999999999999 18.6 c0.06 -0.1 0.04 0.08 0 0 l0 0 z M36.38999999999999 18.74 l0 0 c-0.02 0.14 0 -0.1 0 0 z M36.37 18.92 c0 -0.02 -0.02 -0.04 0 -0.04 c0.1 -0.02 -0.12 0.16 0 0.04 z M42.61 18.94 c0.02 -0.1 0.02 0.08 0 0 l0 0 z M42.56999999999999 18.98 c0.14 0.1 0.02 0.3 -0.08 0.38 c-0.02 -0.18 0.14 -0.22 0.08 -0.38 z M36.33 19.16 l0 0 c0.02 0 0 -0.02 0 0 z M36.309999999999995 19.32 c0.08 0.04 -0.02 0.1 0 0.16 c-0.04 0 -0.02 -0.14 0 -0.16 z M42.42999999999999 19.42 c0.02 0.16 -0.06 0.4 -0.06 0.5 c-0.04 0 -0.04 -0.02 -0.08 -0.02 c0 0.2 -0.14 0.26 -0.2 0.42 c-0.02 -0.02 -0.06 -0.06 -0.06 -0.12 c0.1 0.02 0.04 -0.14 0.16 -0.12 c0 -0.12 0.02 -0.22 0.12 -0.26 c-0.04 -0.12 0.08 -0.26 0.12 -0.4 z M36.37 19.52 l0 0 c0.02 -0.02 -0.02 -0.04 0 0 z M36.37 19.52 l0 0 c-0.04 0 0 0.02 0 0 z M36.269999999999996 19.68 c0.02 -0.1 0.02 0.1 0 0 l0 0 z M36.24999999999999 20.08 c0.04 0 0.04 0.14 -0.04 0.1 c0 -0.04 0.02 -0.06 0.04 -0.1 z M36.209999999999994 20.26 l0.08 0 c-0.02 0.06 -0.02 0.04 0 0.12 c-0.08 -0.02 -0.1 -0.06 -0.08 -0.12 z M42.05 20.42 c-0.02 0.18 -0.14 0.26 -0.2 0.42 c-0.14 -0.12 0.1 -0.32 0.12 -0.46 c0.04 0 0.04 0.04 0.08 0.04 z M42.05 20.42 c0 -0.02 0 -0.06 0.04 -0.04 l0 0.04 l-0.04 0 z M36.19 20.42 c0.04 -0.1 0.04 0.1 0 0 l0 0 z M41.769999999999996 20.56 l0 0 c-0.02 0.14 0 -0.1 0 0 z M36.209999999999994 20.62 c0.04 0 0.02 0.06 0.04 0.1 c-0.06 -0.02 -0.06 -0.08 -0.04 -0.1 z M36.19 20.84 l0 0 c0.02 0 0 -0.02 0 0 z M41.489999999999995 21.04 c0.08 0.04 0 0.14 -0.06 0.1 c0 -0.04 0.06 -0.04 0.06 -0.1 z M41.11 21.7 l0 0 c0.02 0 0 -0.02 0 0 z M46.175 17.44 c1.04 -0.2 2.1 -0.58 2.98 -1 c0.08 0.02 0.18 -0.02 0.24 0.04 c-0.04 0.14 0.02 0.2 0.06 0.28 c-0.28 0.16 -0.54 0.34 -0.84 0.48 c-0.02 -0.06 0 -0.06 -0.02 -0.14 c-0.04 0.06 -0.1 0.1 -0.14 0 c-0.06 0.02 -0.06 0.1 -0.1 0.14 c0 0.02 0.04 0.02 0.04 0.04 c0.08 0.04 0.06 -0.04 0.06 -0.08 c0.2 0.1 -0.1 0.12 -0.12 0.24 c-0.08 0 -0.04 -0.08 -0.12 -0.06 c-0.12 0.02 0 0.18 -0.06 0.2 c-0.08 0.02 -0.04 -0.14 -0.02 -0.14 c-0.12 0.04 -0.16 0.14 -0.26 0.2 c-0.08 0.02 -0.04 -0.06 -0.1 -0.06 c-0.04 0 -0.04 0.06 -0.04 0.12 c-0.08 0.02 -0.04 -0.08 -0.08 -0.1 c-0.06 0 -0.1 0.1 -0.16 0.02 c-0.08 0.04 0.06 0.06 0.04 0.12 c-0.1 -0.06 -0.14 0.04 -0.26 -0.04 c-0.02 0.1 0.14 0.02 0.12 0.12 c-0.08 0 -0.1 0.02 -0.16 0 l0 -0.1 c-0.12 0.02 -0.12 0.02 -0.22 0.02 c-0.02 0.08 -0.02 0.1 -0.1 0.02 c-0.06 0.06 0.06 0.06 0.02 0.16 c-0.34 0.1 -1.2 0.06 -1.22 0.54 c-0.46 0.62 -0.74 1.5 -1.7 1.52 c-1.34 -0.28 -1.14 -2.38 -0.32 -3.06 c0 -0.1 0.02 -0.18 -0.02 -0.26 c0.14 -1.44 1.92 -1.26 2.54 -0.38 c0.18 0.38 0.16 0.8 -0.04 1.16 z M45.355 16.04 c-0.36 0.26 -0.98 0.4 -0.82 1 c-0.12 0.1 -0.26 0.24 -0.26 0.4 c0.26 0.14 0.72 0.18 1.04 0.14 c0.18 -0.48 0.52 -1.16 0.04 -1.54 z M45.91499999999999 16.66 c0 0.02 -0.02 0 0 0 l0 0 z M48.91499999999999 16.96 c0.02 0.08 0.02 -0.1 0 0 l0 0 z M48.63499999999999 17.1 c0.1 0.02 0.02 -0.08 0 0 l0 0 z M48.27499999999999 17.259999999999998 c-0.02 -0.06 0.04 -0.06 0.04 -0.12 c-0.14 -0.02 -0.12 0.12 -0.04 0.12 z M48.13499999999999 17.34 c0.06 0 0.1 0 0.1 -0.06 c-0.04 0 -0.04 -0.04 -0.08 -0.04 c0 0.04 -0.02 0.04 -0.02 0.1 z M47.995 17.32 l0.08 0 c0 -0.06 -0.04 -0.06 -0.08 -0.06 l0 0.06 z M47.41499999999999 17.46 c0.2 -0.04 0.4 0.02 0.6 -0.08 c-0.14 -0.02 -0.28 0 -0.4 -0.06 c0.02 0.12 -0.18 0.04 -0.2 0.14 z M45.815 17.5 c0.02 0.02 -0.02 0 0 0 l0 0 z M46.91499999999999 17.52 c0 0.18 0.3 0.1 0.36 0.04 c-0.14 -0.1 -0.22 0 -0.36 -0.04 z M46.794999999999995 17.62 c-0.12 -0.02 0.02 0.12 0.02 0.02 l0.08 0 c0 -0.06 -0.04 -0.08 -0.1 -0.06 l0 0.04 z M46.574999999999996 17.68 c-0.04 -0.02 -0.04 -0.08 -0.12 -0.06 c-0.04 0.1 0.12 0.14 0.12 0.06 z M43.95499999999999 17.7 c-0.18 0.44 -0.54 1.04 -0.28 1.68 c0.72 -0.12 0.98 -0.68 1.3 -1.2 c-0.44 -0.06 -0.72 -0.28 -1.02 -0.48 z M46.394999999999996 17.72 c0 0.02 -0.02 -0.02 0 0 l0 0 z M46.77499999999999 17.84 c0.08 0.08 0.04 -0.08 0 0 l0 0 z M46.55499999999999 17.88 c-0.02 0 -0.12 -0.04 -0.12 0 c0.04 0.04 0.1 0.1 0.12 0 z M46.574999999999996 17.88 c0.1 0.04 0.02 -0.06 0 0 l0 0 z M46.69499999999999 17.88 c0.02 0.04 0.04 0 0 0 c0 -0.02 -0.02 0.02 0 0 z M46.394999999999996 17.92 c0.06 0.08 0.02 -0.08 0 0 l0 0 z M46.23499999999999 17.96 c-0.02 0 -0.02 -0.04 -0.06 -0.02 c-0.04 0.06 0.08 0.06 0.06 0.02 z M46.794999999999995 17.62 c0.02 0 0.02 0 0.02 0.02 c0 0 -0.02 0 -0.02 -0.02 z M54.739999999999995 8.6 c-0.02 0.02 -0.02 0.08 -0.04 0.12 c0.04 0.06 0.06 -0.1 0.12 -0.08 c-0.02 0.08 -0.02 0.18 -0.14 0.16 c0.2 0.3 -0.32 0.52 -0.18 0.82 c-0.02 -0.02 -0.08 -0.02 -0.08 0.02 c0 0.06 0.08 0.02 0.08 0.06 c-0.12 0.06 -0.08 0.16 -0.2 0.24 c0 0.02 0.02 0.02 0.02 0.06 c0.1 0.02 0.02 -0.14 0.14 -0.12 c-0.02 0.08 -0.04 0.16 -0.08 0.22 c-0.04 0.04 -0.06 -0.02 -0.12 0.02 c-0.02 0.1 0.06 0.08 0.06 0.16 c-0.1 -0.04 -0.04 0.06 -0.12 0.04 c0 0.1 0.06 0.02 0.1 0.08 c-0.04 0.12 -0.04 0.12 -0.06 0.24 c-0.04 0 -0.08 0.04 -0.14 0.04 c0 0.08 0.1 0.06 0.08 0.16 c-0.08 0.04 -0.06 -0.04 -0.1 -0.04 c-0.06 0.08 0 0.14 -0.08 0.2 c0.06 0 0.06 -0.06 0.12 -0.04 c0 0.1 -0.14 0.08 -0.18 0.12 c0 0.34 0.04 0.56 -0.12 0.82 c-0.14 -0.08 -0.14 0.1 -0.18 0.2 c0.02 0.08 0.1 -0.06 0.08 0.04 c-0.04 0.04 -0.02 0.04 -0.1 0.02 c0.1 0.24 -0.04 0.7 -0.32 0.7 c-0.06 -0.04 0.08 -0.1 0 -0.16 c-0.12 0 0.02 0.12 -0.12 0.14 c0.08 0.04 0.18 0.1 0.24 0.08 c0.02 0.14 -0.1 0.16 -0.08 0.3 c-0.08 0 -0.14 0 -0.12 0.08 c-0.12 -0.02 0.02 0.12 0 0 c0.02 0 0.02 -0.04 0.06 -0.02 c-0.04 0.04 -0.06 0.12 -0.02 0.2 c-0.14 0.1 -0.1 0.38 -0.26 0.46 c0 -0.04 0 -0.08 -0.06 -0.06 c-0.06 0.14 -0.1 0.24 -0.14 0.38 c0.2 0 0.08 0.56 -0.18 0.66 l0 0.28 c-0.08 -0.02 -0.04 0.04 -0.12 0.06 c-0.02 0.08 0.08 0.04 0.04 0.12 c-0.08 -0.02 -0.08 -0.06 -0.14 0 c-0.02 0.1 0.04 0.14 0.04 0.22 c-0.04 0.04 -0.04 -0.02 -0.1 -0.02 c-0.02 0.02 -0.04 0.06 -0.06 0.1 s0.1 -0.02 0.06 0.06 c-0.02 0.02 -0.08 0.02 -0.12 0.06 c0.1 0.22 -0.12 0.4 -0.24 0.42 c0.14 0.18 -0.06 0.26 -0.02 0.38 c-0.12 0 -0.08 0.18 -0.22 0.16 c0.04 0.08 0.02 0.08 -0.04 0.12 c0.12 0.26 0.18 0.48 0.16 0.8 c0.2 0.3 0.24 0.74 0.46 1.02 c0.04 -0.02 0.06 -0.04 0.06 -0.08 c0.12 0.18 0.56 0.3 0.76 0.12 c1.88 -0.32 2.88 -1.54 4.06 -2.56 c-0.18 0.66 -0.48 1.34 -1.06 1.62 c0.04 0.1 0.14 -0.02 0.22 -0.02 c-0.02 0.1 -0.14 0.1 -0.18 0.18 c0.02 0.04 0.1 -0.02 0.1 -0.04 c0.1 0.12 -0.16 0.06 -0.14 0.18 c-0.04 0 -0.02 -0.08 -0.1 -0.06 c-0.08 0.04 0.06 0.06 0.02 0.12 c-0.18 0.14 -0.2 0.18 -0.36 0.34 c-0.24 -0.08 -0.4 0.32 -0.68 0.36 c-0.04 0.04 0 0.04 0 0.1 c-0.42 0.22 -0.88 0.36 -1.32 0.56 c-0.12 -0.04 -0.26 -0.12 -0.34 0 c-1.2 0.06 -1.7 -0.92 -2.06 -1.84 c-0.48 0.86 -1.04 1.84 -2.14 2.14 c-0.32 -0.02 -0.68 -0.1 -0.78 -0.4 c-0.04 -0.02 -0.04 0.04 -0.12 0.02 c-0.14 -0.12 -0.12 -0.4 -0.2 -0.52 c0.04 -1.62 0.82 -3.82 2.56 -3.32 c0.02 0.6 -0.1 0.98 -0.46 1.36 c-0.04 0 -0.02 -0.06 -0.1 -0.04 c-0.08 -0.2 0.02 -0.54 -0.06 -0.8 c-0.1 0 -0.12 0.06 -0.2 0.08 c-0.4 0.94 -0.9 1.74 -0.88 2.86 c0.94 -0.54 1.44 -1.5 2.06 -2.36 c-0.06 -0.32 -0.1 -0.74 0.02 -0.9 c0.02 -0.08 -0.06 -0.06 -0.04 -0.12 c0 -0.06 0.04 -0.08 0.04 -0.12 c-0.02 -0.66 0.18 -1.44 0.22 -2.1 c0 -0.08 0.06 -0.1 0.08 -0.14 c0.52 -3.2 1.52 -6.52 3.02 -9.28 c0.18 -0.08 0.6 -0.22 0.74 -0.04 c0.86 0.16 0.56 1.42 0.32 2.02 c-0.02 -0.08 0.06 -0.18 0 -0.24 c-0.04 0.12 -0.06 0.24 -0.08 0.36 c0.06 0.08 0.02 -0.1 0.1 -0.06 c-0.02 0.14 0 0.26 -0.1 0.36 c0.14 0.16 -0.14 0.48 -0.02 0.54 c-0.08 0.04 -0.06 0.18 -0.14 0.2 c0 0.02 0.02 0.04 0.06 0.04 c-0.02 0.06 -0.04 0.14 -0.12 0.14 c0.16 0.12 -0.12 0.28 0 0.34 c-0.08 0 -0.08 0.16 -0.16 0.12 c-0.02 0.08 0.08 0.06 0.06 0.14 c-0.08 0.1 -0.1 0.32 -0.26 0.42 c0.02 0.02 0.08 0.02 0.12 0.04 c-0.02 0.06 -0.12 0.06 -0.14 0.12 c0 0.02 0.02 0.04 0.04 0.06 z M54.66 4.48 c0.06 0.1 0.02 -0.08 0 0 l0 0 z M55.03999999999999 4.539999999999999 l0.04 0 l0 -0.06 l-0.04 0 l0 0.06 z M55.03999999999999 4.68 c0.06 0.04 0.06 -0.1 0 -0.08 l0 0.08 z M54.379999999999995 5.720000000000001 c-0.5 0.52 -0.52 1.54 -0.9 1.98 c-0.02 -0.04 0.06 0 0.06 0.02 c-0.08 0.14 -0.1 0.36 -0.24 0.46 c0.06 0.18 -0.1 0.48 -0.2 0.66 c-0.02 0.4 -0.2 0.86 -0.4 1.16 c0.06 0.02 0.08 -0.06 0.1 0 c-0.02 0.1 -0.06 0.2 -0.16 0.22 c0.02 0.02 0.08 0 0.06 0.08 c-0.22 0.66 -0.26 1.3 -0.52 1.92 c0.02 0.02 0.06 0.04 0.08 0.1 c-0.16 0.1 0 0.52 -0.2 0.68 c0.06 0.12 0 0.26 -0.08 0.32 c0.12 0.12 0.02 0.26 0 0.44 l-0.08 0 c0.02 0.26 -0.04 0.48 -0.04 0.76 c0.3 -0.44 0.38 -0.82 0.54 -1.24 c0.12 0.04 0.02 -0.16 0.14 -0.1 c0.02 0.06 -0.04 0.04 -0.02 0.12 c0.06 -0.04 0.08 -0.1 0.12 -0.18 c-0.04 -0.06 -0.1 0.04 -0.12 -0.02 c0 -0.06 0.02 -0.1 0.04 -0.14 c0.04 0 0.04 0.02 0.08 0.02 c-0.08 -0.16 0.06 -0.44 0.16 -0.58 c0.26 -0.78 0.5 -1.5 0.8 -2.16 c-0.08 -0.1 -0.02 -0.3 0.1 -0.36 c-0.1 -0.3 0.22 -0.5 0.16 -0.84 c0.04 -0.06 0.1 0.04 0.12 -0.02 c-0.06 -0.04 0.04 -0.12 -0.04 -0.16 c0.02 -0.02 0.04 -0.04 0.08 -0.02 c0 -0.68 0.42 -1.18 0.44 -1.9 c0.2 -0.62 0.26 -1.2 0.44 -1.8 c-0.1 -0.1 0.02 -0.3 -0.08 -0.36 c-0.14 0.3 -0.38 0.62 -0.44 0.94 z M54.94 5.619999999999999 c0.1 -0.24 0.18 -0.62 0.1 -0.84 c-0.02 0.34 -0.06 0.52 -0.1 0.84 z M55.199999999999996 5.039999999999999 c0.02 -0.04 0.04 -0.04 0.02 -0.1 l-0.06 0 c0 0.04 0.02 0.08 0.04 0.1 z M55.17999999999999 5.16 c-0.06 0.08 0.08 -0.06 0 0 l0 0 z M55.17999999999999 5.4399999999999995 c-0.06 -0.04 0.06 -0.14 -0.04 -0.16 c0.02 0.06 -0.06 0.18 0.04 0.16 z M55.44 5.4 c-0.08 0.08 0.1 -0.1 0 0 l0 0 z M55.279999999999994 5.4399999999999995 l0.04 0 l0 -0.04 l-0.04 0 l0 0.04 z M54.85999999999999 5.960000000000001 c0.06 -0.06 0.16 -0.28 0.06 -0.32 c-0.04 0.08 -0.04 0.2 -0.06 0.32 z M55.019999999999996 5.960000000000001 c0.08 -0.02 0.16 -0.28 0.04 -0.28 c0.02 0.12 -0.02 0.18 -0.04 0.28 z M54.13999999999999 5.74 c0.02 0 0 -0.02 0 0 l0 0 z M55.17999999999999 6.02 l0.04 0 l0 -0.04 l-0.04 0 l0 0.04 z M54.81999999999999 6.140000000000001 c0.08 0.02 0.1 -0.14 0.02 -0.14 c0 0.06 0 0.12 -0.02 0.14 z M54.98 6.119999999999999 c0.1 0 0.14 -0.12 0.04 -0.12 c0 0.06 -0.06 0.06 -0.04 0.12 z M53.48 6.1 c0.02 0 -0.02 -0.02 0 0 l0 0 z M55.279999999999994 6.220000000000001 c0.02 0 -0.02 -0.02 0 0 l0 0 z M54.839999999999996 6.24 c0 -0.02 -0.06 -0.04 -0.06 0 c-0.02 0.06 0.08 0.06 0.06 0 z M54.66 7.039999999999999 c0 -0.18 0.22 -0.56 0.12 -0.7 c-0.02 0.26 -0.2 0.46 -0.12 0.7 z M53.35999999999999 6.4 c0.02 0.02 -0.02 0 0 0 l0 0 z M54.919999999999995 6.460000000000001 l0.04 0 l0 -0.06 l-0.04 0 l0 0.06 z M55.22 6.5600000000000005 c0.02 0 0 -0.02 0 0 l0 0 z M53.239999999999995 6.720000000000001 l0.04 0 l0 -0.04 l-0.04 0 l0 0.04 z M54.85999999999999 6.720000000000001 c0.02 0.02 0 -0.02 0 0 l0 0 z M55.03999999999999 6.800000000000001 l0.04 0 l0 -0.06 l-0.04 0 l0 0.06 z M54.81999999999999 6.960000000000001 c-0.08 0.1 -0.1 0.28 -0.12 0.38 c0.08 -0.08 0.16 -0.26 0.12 -0.38 c0.06 -0.02 0.06 -0.1 0.08 -0.16 c-0.1 -0.02 -0.08 0.08 -0.08 0.16 z M54.98 6.98 c0.02 0.02 0 0 0 0 l0 0 z M53.459999999999994 7.039999999999999 c-0.04 -0.02 -0.04 -0.04 -0.08 -0.04 c-0.04 0.06 0.08 0.08 0.08 0.04 z M53.12 7.119999999999999 c0 -0.02 0 -0.04 0.02 -0.06 l-0.04 0 c-0.04 0.02 -0.04 0.06 0.02 0.06 z M53.22 7.08 l0 0 c0.08 -0.1 -0.1 0.08 0 0 z M53.3 7.08 c0.1 0.02 0.02 -0.08 0 0 l0 0 z M54.49999999999999 7.18 c-0.02 0.06 0.04 0.06 0.06 0.1 c0 0.02 -0.02 0.02 -0.02 0.04 c0.08 0.02 0.1 -0.16 0.02 -0.16 c0 0 -0.02 0.02 -0.06 0.02 z M54.48 7.58 l-0.04 0 l0 0.06 c0.04 0 0.04 -0.02 0.04 -0.06 c0.1 -0.06 0.04 -0.12 0.08 -0.22 c-0.1 0 -0.06 0.14 -0.08 0.22 z M55.019999999999996 7.4399999999999995 l0.04 0 c0.04 -0.06 -0.08 -0.08 -0.08 -0.02 c0.02 0 0.04 0 0.04 0.02 z M53.279999999999994 7.4399999999999995 l0 0.04 l0.06 0 c0 0 0 -0.02 0.02 -0.02 l0 -0.04 l-0.06 0 c0 0 0 0.02 -0.02 0.02 z M54.49999999999999 8.06 c0.12 -0.16 0.24 -0.42 0.18 -0.64 c-0.08 0.2 -0.12 0.48 -0.18 0.64 z M55.059999999999995 7.52 c0.02 0 0 -0.02 0 0 l0 0 z M53.17999999999999 7.539999999999999 c-0.04 0.08 0.08 -0.06 0 0 l0 0 z M53.419999999999995 7.58 c0.02 -0.02 0.02 -0.02 0.04 -0.02 c0 -0.04 -0.02 -0.06 -0.06 -0.04 c0 0.02 0 0.06 0.02 0.06 z M54.98 7.640000000000001 c0.02 -0.06 0.06 -0.12 -0.02 -0.12 c-0.02 0.02 -0.04 0.1 0.02 0.12 z M52.89999999999999 7.58 c0.04 0.08 0.06 -0.1 0 0 l0 0 z M52.94 7.68 c0.04 0.04 0.1 0 0.1 -0.08 c-0.04 0.02 -0.1 0.02 -0.1 0.08 z M54.94 7.68 c0.02 0.02 0 -0.02 0 0 l0 0 z M54.44 7.76 c-0.06 0.1 -0.1 0.26 -0.12 0.4 c0.1 -0.08 0.14 -0.3 0.12 -0.4 l0.02 0 c0 -0.04 0.02 -0.04 0.02 -0.04 l0 -0.04 c-0.04 -0.02 -0.04 0.04 -0.04 0.08 z M52.879999999999995 7.800000000000001 c0 -0.04 0.04 -0.04 0.04 -0.08 c-0.04 -0.02 -0.1 0.06 -0.04 0.08 z M53.22 7.82 l0.04 0 l0 -0.04 l-0.04 0 l0 0.04 z M52.919999999999995 7.9 c0.02 0 0 -0.02 0 0 l0 0 z M53.16 8 l0.06 0 l0 -0.06 l-0.06 0 l0 0.06 z M54.8 8.14 c0.08 0.04 0.12 -0.16 0.02 -0.14 c0.02 0.06 -0.04 0.06 -0.02 0.14 z M52.66 8.24 c0.08 -0.02 0.18 -0.2 0.08 -0.22 c0 0.1 -0.06 0.14 -0.08 0.22 z M54.44 8.2 c0.08 0.02 0.08 -0.04 0.1 -0.06 c-0.06 0 -0.12 0 -0.1 0.06 z M53.099999999999994 8.26 c0.06 0.02 0.12 -0.08 0.06 -0.1 c0.02 0.06 -0.08 0.02 -0.06 0.1 z M54.699999999999996 8.18 c0.06 0.1 0.04 -0.08 0 0 l0 0 z M52.81999999999999 8.2 c0.02 0.02 0 0 0 0 l0 0 z M54.199999999999996 8.54 c0.08 -0.04 0.16 -0.3 0.1 -0.34 c-0.04 0.12 -0.06 0.24 -0.1 0.34 z M53.13999999999999 8.32 c0.02 0.02 0 0 0 0 l0 0 z M54.3 8.78 c0.08 -0.08 0.16 -0.36 0.12 -0.46 c-0.06 0.18 -0.1 0.24 -0.12 0.46 z M54.53999999999999 8.42 c0.06 0.1 0.02 -0.08 0 0 l0 0 z M52.63999999999999 8.44 l0 0 c0.04 -0.12 -0.06 0.12 0 0 z M52.81999999999999 8.62 c0.02 -0.02 0.12 -0.12 0 -0.12 c0.02 0.04 -0.06 0.1 0 0.12 z M52.559999999999995 8.62 l0.06 0 l0 -0.06 l-0.06 0 l0 0.06 z M54.199999999999996 8.62 c0.06 0.08 0.04 -0.08 0 0 l0 0 z M54.44 8.76 c0 -0.02 0 -0.04 0.02 -0.02 c0 -0.04 0 -0.06 -0.04 -0.06 c0 0.04 -0.02 0.08 0.02 0.08 z M52.75999999999999 8.76 c0.02 0.02 -0.02 -0.02 0 0 l0 0 z M53.94 9.58 c0.02 -0.3 0.24 -0.54 0.18 -0.82 c-0.04 0.28 -0.24 0.52 -0.18 0.82 z M52.85999999999999 8.92 c0 -0.04 0.08 -0.1 0 -0.12 c-0.02 0.06 -0.08 0.1 0 0.12 z M52.879999999999995 9.08 c0.08 -0.04 0.1 -0.14 0.14 -0.22 c-0.1 0.02 -0.1 0.12 -0.14 0.22 z M54.019999999999996 9.68 c-0.08 0.14 -0.12 0.26 -0.16 0.48 c0.12 -0.06 0.08 -0.24 0.22 -0.28 c-0.02 -0.02 -0.1 0 -0.1 -0.04 c0.06 -0.04 0.08 -0.1 0.04 -0.16 c0.16 -0.2 0.18 -0.54 0.3 -0.78 c-0.02 -0.02 -0.02 -0.06 -0.08 -0.04 c0.02 0.16 -0.22 0.58 -0.22 0.82 z M52.559999999999995 8.98 c0.08 -0.02 0.12 -0.06 0.14 -0.1 l-0.14 0 l0 0.1 z M54.379999999999995 8.92 l0.06 0 l0 -0.04 l-0.06 0 l0 0.04 z M52.44 8.96 c0.04 0 0.06 -0.02 0.08 -0.06 c-0.04 0 -0.06 0.02 -0.08 0.06 z M52.8 9.02 c0.04 0.1 0.04 -0.1 0 0 l0 0 z M52.66 9.04 c-0.04 0.02 0 0.04 0 0 c0.04 0 0 -0.02 0 0 z M54.44 9.1 c0.02 0 -0.02 -0.02 0 0 l0 0 z M52.39999999999999 9.1 l0 0.02 c-0.06 0.14 0.12 -0.14 0 -0.02 z M52.49999999999999 9.12 c0.1 0.02 0 -0.08 0 0 l0 0 z M52.75999999999999 9.1 c-0.02 0.14 0.1 0 0 0 l0 0 z M52.62 9.2 c0 0 -0.02 -0.02 0 0 l0 0 z M52.739999999999995 9.34 c0.02 -0.04 0.02 -0.08 0.02 -0.12 c-0.1 -0.02 -0.1 0.12 -0.02 0.12 z M52.8 9.34 c0.06 0 0.06 -0.06 0.08 -0.1 c-0.06 0 -0.06 0.04 -0.08 0.1 z M52.519999999999996 9.44 c0.08 0 0.12 -0.12 0.04 -0.12 c-0.02 0.02 -0.02 0.08 -0.04 0.12 z M52.31999999999999 9.34 c-0.08 0.1 0.14 0.02 0 0 l0 0 z M52.699999999999996 9.6 c0.12 0 0.12 -0.12 0.08 -0.16 c-0.02 0.04 -0.04 0.12 -0.08 0.16 z M52.519999999999996 9.58 c0.06 0.02 0.06 -0.12 0 -0.08 l0 0.08 z M52.66 9.56 l-0.04 0 l0 0.04 c0.04 0 0.04 -0.02 0.04 -0.04 c0.1 -0.02 0 -0.12 0 0 z M54.17999999999999 9.58 c0 0 -0.02 -0.02 0 0 l0 0 z M54.339999999999996 9.64 c0.06 0.02 0.1 -0.08 0.04 -0.08 c0 0.02 -0.06 0.02 -0.04 0.08 z M52.39999999999999 9.6 c0.02 0.02 -0.02 -0.02 0 0 l0 0 z M52.339999999999996 9.64 c0.04 0.1 0.04 -0.08 0 0 l0 0 z M53.879999999999995 9.72 c0 -0.04 -0.02 -0.06 -0.04 -0.08 c-0.04 0.04 -0.04 0.1 0.04 0.08 z M52.62 9.82 l0 -0.1 c-0.1 -0.02 -0.1 0.12 0 0.1 z M52.67999999999999 9.72 c-0.08 0.12 0.14 0.04 0 0 l0 0 z M53.739999999999995 10.08 c0.08 -0.08 0.12 -0.26 0.08 -0.32 c-0.08 0.1 -0.08 0.2 -0.08 0.32 z M54.239999999999995 9.86 c0.02 -0.06 0 -0.08 -0.04 -0.1 c-0.04 0.04 -0.02 0.12 0.04 0.1 z M52.379999999999995 9.96 c0.06 0.04 0.06 -0.1 0 -0.08 l0 0.08 z M52.519999999999996 9.96 c0.1 0.02 0 -0.08 0 0 l0 0 z M52.26 9.98 c0.06 0.1 0.02 -0.08 0 0 l0 0 z M52.559999999999995 10.3 c0.02 -0.12 0.12 -0.24 0.02 -0.3 c-0.02 0.12 -0.06 0.2 -0.02 0.3 z M52.3 10.34 c0.02 -0.1 0.1 -0.24 0.08 -0.3 c-0.06 0.04 -0.16 0.26 -0.08 0.3 z M52.17999999999999 10.2 c0.06 0.02 0.1 -0.1 0.04 -0.12 c0 0.04 -0.04 0.06 -0.04 0.12 z M53.66 10.32 c0.06 -0.02 0.16 -0.2 0.04 -0.2 z M52.059999999999995 10.24 c0.06 0.02 0.08 -0.02 0.08 -0.08 c-0.08 -0.04 -0.04 0.06 -0.08 0.08 z M54.199999999999996 10.18 c-0.06 0.08 0.08 -0.06 0 0 l0 0 z M54.059999999999995 10.22 l0.06 0 c0 -0.04 -0.02 -0.06 -0.06 -0.04 l0 0.04 z M52.39999999999999 10.3 l0.06 0 c0 -0.04 0.04 -0.12 -0.04 -0.1 c0 0.04 -0.04 0.04 -0.02 0.1 z M53.85999999999999 10.4 c-0.02 -0.1 0.04 -0.12 0.02 -0.2 l-0.06 0 c0 0.1 -0.08 0.18 0.04 0.2 z M52.17999999999999 10.34 c0 -0.04 0.02 -0.06 0.02 -0.1 c-0.06 0 -0.08 0.1 -0.02 0.1 z M53.959999999999994 10.3 c0.08 0.08 0.04 -0.1 0 0 l0 0 z M53.62 10.36 l0 0.04 c-0.06 0.14 0.12 -0.16 0 -0.04 z M51.98 10.48 c0.1 0.02 0.1 -0.08 0.04 -0.08 c0 0.04 -0.04 0.04 -0.04 0.08 z M52.21999999999999 10.44 c0.06 0.02 0.1 0.04 0.16 0.04 c-0.02 -0.06 -0.14 -0.14 -0.16 -0.04 z M53.75999999999999 10.7 c-0.04 -0.08 0.06 -0.14 0.08 -0.24 c-0.04 0 -0.04 -0.02 -0.08 -0.02 c0 0.08 -0.14 0.24 0 0.26 z M53.58 10.7 c-0.06 -0.06 0.12 -0.2 0 -0.24 c-0.02 0.1 -0.14 0.28 0 0.24 z M54.17999999999999 10.48 c-0.1 0.12 0.14 0.04 0 0 l0 0 z M52.339999999999996 10.66 c0.02 -0.02 0.06 -0.12 -0.02 -0.1 c0 0.04 0 0.08 0.02 0.1 z M52.08 10.7 c0.04 -0.04 0.08 -0.1 0 -0.12 c0 0.02 -0.06 0.12 0 0.12 z M52.39999999999999 10.6 l0 0.06 l0.06 0 l0 -0.08 l-0.04 0 c0 0.02 0 0.04 -0.02 0.02 z M54.059999999999995 10.64 c0.02 0.08 0.02 -0.1 0 0 l0 0 z M51.98 10.7 c0.02 0.02 0 0 0 0 l0 0 z M52.419999999999995 10.82 c0.02 -0.04 0.04 -0.06 0.04 -0.1 c-0.02 0 -0.02 -0.02 -0.06 -0.02 c0 0.04 -0.04 0.12 0.02 0.12 z M52.03999999999999 10.88 c0 -0.06 0.04 -0.08 0.04 -0.12 c-0.02 -0.02 -0.02 -0.04 -0.06 -0.04 c0 0.04 -0.04 0.14 0.02 0.16 z M52.279999999999994 10.84 l0.04 0 s0.04 0 0.02 -0.02 c-0.04 0 0 -0.06 -0.04 -0.06 c0 0.02 -0.04 0.04 -0.02 0.08 z M53.63999999999999 10.84 c0.06 0.02 0.08 -0.02 0.08 -0.08 c-0.06 -0.02 -0.06 0.04 -0.08 0.08 z M52.13999999999999 10.82 l0.04 0 l0 -0.04 l-0.04 0 l0 0.04 z M51.919999999999995 10.82 c0.06 0.1 0.04 -0.08 0 0 l0 0 z M53.48 10.82 c-0.02 0.14 0.1 0.02 0 0 l0 0 z M53.94 10.94 c0.06 0.04 0.06 -0.1 0.02 -0.1 c-0.02 0.04 -0.04 0.06 -0.02 0.1 z M52.39999999999999 10.9 c0.02 0 -0.02 -0.02 0 0 l0 0 z M53.35999999999999 11.06 c0.02 0 0.08 0.06 0.1 0 c-0.08 0 -0.06 -0.12 0.02 -0.1 l0 -0.04 c-0.02 0 -0.04 -0.02 -0.06 -0.02 c-0.02 0.06 -0.06 0.08 -0.06 0.16 z M53.49999999999999 11.28 c0.1 -0.08 0.18 -0.26 0.16 -0.38 c-0.1 0.04 -0.16 0.3 -0.16 0.38 z M52.099999999999994 10.96 l0.06 0 l0 -0.04 l-0.06 0 l0 0.04 z M52.31999999999999 11 c0.02 0 0 -0.02 0 0 l0 0 z M51.89999999999999 11.06 c0 -0.06 -0.02 -0.08 -0.08 -0.06 c0 0.04 0.02 0.06 0.08 0.06 z M51.89999999999999 11.24 c0.08 0 0.16 -0.2 0.06 -0.22 c0 0.08 -0.06 0.12 -0.06 0.22 z M52.31999999999999 11.16 c0.02 -0.04 0.08 -0.04 0.06 -0.12 l-0.08 0 c0.02 0.04 -0.02 0.12 0.02 0.12 z M52.099999999999994 11.16 c0.02 -0.02 0.06 -0.12 -0.02 -0.1 c0 0.04 0 0.1 0.02 0.1 z M53.839999999999996 11.14 c0 -0.04 -0.02 -0.06 -0.06 -0.08 c0.02 0.04 0 0.08 0.06 0.08 z M52.21999999999999 11.12 c0.02 0 0 -0.02 0 0 l0 0 z M53.25999999999999 11.42 c0.08 0 0.2 -0.22 0.1 -0.26 c-0.02 0.1 -0.06 0.18 -0.1 0.26 z M52.26 11.3 l0.04 0 l0 -0.04 l-0.04 0 l0 0.04 z M53.779999999999994 11.3 c-0.02 0.04 -0.1 0.04 -0.08 0.1 c0.06 0 0.14 0.02 0.14 -0.04 l-0.06 -0.06 c0.08 0 -0.02 -0.1 0 0 z M51.98 11.32 l0 0.06 l0.06 0 c0.02 -0.04 0.02 -0.06 -0.02 -0.08 c0 0.02 -0.02 0.04 -0.04 0.02 z M51.85999999999999 11.38 c0.02 0 0 -0.02 0 0 l0 0 z M53.58 11.42 c-0.06 0 -0.06 -0.08 -0.12 -0.06 c-0.02 0.06 0.08 0.12 0.12 0.06 z M51.739999999999995 11.4 l0 0.04 l0.06 0 c0.02 -0.02 0.02 -0.06 -0.02 -0.06 c0 0 -0.02 0.02 -0.04 0.02 z M52.199999999999996 11.5 c0.1 0.04 0.14 -0.12 0.06 -0.12 c-0.04 0.02 -0.04 0.08 -0.06 0.12 z M51.839999999999996 11.52 c0.06 0 0.06 -0.02 0.1 -0.02 c0 0.02 0 0.04 0.02 0.04 c0.02 -0.04 0.1 -0.02 0.08 -0.12 c-0.1 0 -0.1 0.04 -0.18 0 c0 0.04 -0.02 0.04 -0.02 0.1 z M53.22 11.5 c-0.02 0 0 0.02 0 0.02 c-0.06 0.14 0.12 -0.14 0 -0.02 z M53.419999999999995 11.56 c0.02 -0.02 0.06 -0.04 0 -0.06 c0 0.02 -0.04 0.04 0 0.06 z M52.199999999999996 11.56 l0 0.06 l0.06 0 c0.02 -0.04 0.02 -0.06 -0.04 -0.08 c0 0.02 0 0.04 -0.02 0.02 z M53.62 11.64 c-0.02 0.08 0.04 0.1 0.08 0.12 c0.02 -0.06 0.06 -0.12 0.08 -0.2 c-0.12 0 -0.06 0.18 -0.16 0.08 z M53.16 11.68 c0.06 0.02 0.1 0 0.1 -0.06 c-0.02 0 -0.04 -0.04 -0.08 -0.02 c0.02 0.04 -0.02 0.04 -0.02 0.08 z M53.339999999999996 11.78 c0.08 0.02 0.12 -0.22 0.02 -0.18 c-0.02 0.1 -0.02 0.06 -0.02 0.18 z M51.67999999999999 11.86 c0.02 -0.08 0.08 -0.1 0.06 -0.2 c-0.08 0.02 -0.08 0.12 -0.06 0.2 z M51.919999999999995 11.68 c-0.06 0.08 0.08 -0.06 0 0 l0 0 z M53.519999999999996 11.76 l0 -0.04 c-0.04 -0.08 -0.12 0.06 0 0.04 z M52.019999999999996 11.8 c0.06 0.04 0.1 -0.08 0.04 -0.08 c0 0.04 -0.06 0.02 -0.04 0.08 z M52.16 11.76 l0.04 0 l0 -0.04 l-0.04 0 l0 0.04 z M53.75999999999999 11.8 l0.06 0 l0 -0.04 l-0.06 0 l0 0.04 z M51.85999999999999 11.98 c0.06 -0.08 0.04 -0.12 0.06 -0.2 c-0.12 0 -0.06 0.14 -0.06 0.2 z M53.25999999999999 11.98 l-0.02 0 c0.02 0.08 -0.12 0.14 -0.06 0.22 c0.04 -0.08 0.14 -0.16 0.08 -0.22 l0.02 0 c0 -0.1 0.08 -0.06 0.08 -0.14 c-0.08 0 -0.16 0.08 -0.1 0.14 z M52.08 12.04 c0.08 0.02 0.12 -0.14 0.02 -0.14 c0.02 0.08 -0.08 0.08 -0.02 0.14 z M53.019999999999996 12.16 c0.04 -0.02 0.14 -0.22 0.02 -0.26 c0.04 0.1 -0.1 0.22 -0.02 0.26 z M53.53999999999999 12.120000000000001 c0.04 -0.06 0.1 -0.16 -0.02 -0.16 c0.02 0.04 -0.02 0.14 0.02 0.16 z M51.58 12 c0.02 0.02 0 -0.02 0 0 l0 0 z M51.85999999999999 13.04 c0.16 -0.24 0.22 -0.68 0.2 -0.94 c-0.08 0.3 -0.12 0.66 -0.2 0.94 z M51.67999999999999 12.32 c0.02 -0.02 0.06 -0.16 -0.02 -0.12 c0 0.02 -0.04 0.12 0.02 0.12 z M51.599999999999994 12.32 c0.04 -0.04 0.02 -0.1 -0.04 -0.1 c0 0.04 0.02 0.08 0.04 0.1 z M53.459999999999994 12.32 c0.08 0 0.08 -0.1 0.02 -0.1 c0 0.04 -0.04 0.04 -0.02 0.1 z M53.099999999999994 12.379999999999999 c0.06 0 0.06 -0.06 0.06 -0.12 c-0.08 0 -0.08 0.06 -0.06 0.12 z M53.39999999999999 12.46 l0.06 0 l0 -0.1 l-0.06 0 l0 0.1 z M52.919999999999995 12.8 c0.12 -0.08 0.22 -0.26 0.12 -0.36 c-0.02 0.12 -0.1 0.22 -0.12 0.36 z M53.519999999999996 12.46 c0.02 0 0 -0.02 0 0 l0 0 z M53.3 12.620000000000001 c0.1 0.06 0.12 -0.14 0.04 -0.12 c0 0.06 -0.06 0.06 -0.04 0.12 z M51.559999999999995 12.64 c0.06 0.02 0.08 -0.02 0.06 -0.08 c-0.06 -0.02 -0.06 0.02 -0.06 0.08 z M51.67999999999999 12.620000000000001 c0.06 0 0.08 -0.04 0.1 -0.06 c-0.06 -0.02 -0.08 0.02 -0.1 0.06 z M51.839999999999996 12.620000000000001 c0.08 0.04 0.08 -0.1 0 -0.06 l0 0.06 z M53.39999999999999 12.74 c0.1 0 0.08 -0.1 0.12 -0.16 c-0.08 0 -0.08 0.1 -0.12 0.16 z M51.58 12.82 c0.02 -0.02 0.06 -0.12 -0.02 -0.1 c0 0.04 -0.02 0.08 0.02 0.1 z M52.739999999999995 12.8 c0.06 0.02 0.06 -0.12 0 -0.08 l0 0.08 z M51.44 12.84 c0.1 0.02 0 -0.08 0 0 l0 0 z M51.8 12.86 c0.02 0.02 -0.02 0 0 0 l0 0 z M52.879999999999995 12.940000000000001 c0.06 0 0.06 -0.06 0.06 -0.1 c-0.06 0 -0.06 0.04 -0.06 0.1 z M52.67999999999999 12.879999999999999 c0.02 0.02 0 0 0 0 l0 0 z M51.53999999999999 12.940000000000001 c0.02 0.08 0.06 -0.1 0 0 l0 0 z M51.62 12.98 c0.08 0.08 0.04 -0.08 0 0 l0 0 z M51.62 13.059999999999999 c0.04 0.08 0.04 -0.1 0 0 l0 0 z M51.739999999999995 13.059999999999999 l0 0.04 l0.06 0 c0.02 -0.04 0.02 -0.06 -0.02 -0.06 c0 0 -0.02 0.02 -0.04 0.02 z M52.75999999999999 13.219999999999999 c0.08 0.02 0.18 -0.14 0.06 -0.16 c0.02 0.08 -0.08 0.06 -0.06 0.16 z M51.739999999999995 13.84 c0.08 -0.22 0.18 -0.52 0.12 -0.74 c0 0.26 -0.14 0.52 -0.12 0.74 z M51.48 13.18 c0.02 0 0 -0.02 0 0 l0 0 z M51.58 13.2 c0.08 0.08 0.04 -0.08 0 0 l0 0 z M52.699999999999996 13.36 c0.1 0.02 0.1 -0.12 0.04 -0.12 c-0.02 0.04 -0.04 0.08 -0.04 0.12 z M51.699999999999996 13.32 c0.02 0.02 0 -0.02 0 0 l0 0 z M51.44 13.34 l0 0.06 l0.04 0 c0.04 -0.04 0.04 -0.06 -0.02 -0.08 c0 0.02 0 0.02 -0.02 0.02 z M51.559999999999995 13.36 l0.04 0 l0 -0.04 l-0.04 0 l0 0.04 z M53.12 13.42 l0.04 0 l0 -0.06 l-0.04 0 l0 0.06 z M51.559999999999995 13.42 c-0.02 0.14 0.1 0 0 0 l0 0 z M52.63999999999999 13.66 c0 -0.06 0.14 -0.2 0.02 -0.22 c-0.02 0.06 -0.14 0.18 -0.02 0.22 z M51.66 13.48 c0 0.02 -0.02 0 0 0 l0 0 z M53.12 13.46 c-0.1 0.12 0.14 0.04 0 0 l0 0 z M52.94 13.66 c0.02 -0.06 0.12 -0.14 0 -0.18 c-0.02 0.02 -0.04 0.16 0 0.18 z M51.379999999999995 13.6 c0.08 0.02 0.1 -0.1 0 -0.08 l0 0.08 z M51.67999999999999 13.66 c0.02 -0.08 -0.06 -0.06 -0.08 -0.08 c0 0.06 0.02 0.08 0.08 0.08 z M51.49999999999999 13.64 c0.08 0.06 0.04 -0.1 0 0 l0 0 z M51.459999999999994 13.84 c0.06 0.02 0.12 -0.14 0.02 -0.14 c0 0.06 -0.04 0.08 -0.02 0.14 z M52.53999999999999 13.76 c0.1 0.02 0 -0.08 0 0 l0 0 z M52.879999999999995 13.8 l0.06 0 c0.02 -0.06 -0.02 -0.08 -0.06 -0.08 l0 0.08 z M53.019999999999996 13.76 c-0.06 0.08 0.08 -0.06 0 0 l0 0 z M51.35999999999999 13.879999999999999 c-0.02 0 -0.04 0.04 -0.04 0.08 c0.06 0.04 0.04 -0.04 0.04 -0.08 c0.04 -0.04 0.06 -0.08 0.06 -0.12 c-0.1 -0.02 -0.08 0.06 -0.06 0.12 z M51.599999999999994 13.82 c0.08 0.04 0.08 -0.1 0 -0.06 l0 0.06 z M52.519999999999996 13.8 c0.02 0.1 0.02 -0.1 0 0 l0 0 z M52.26 13.940000000000001 c0.06 0.04 0.06 -0.1 0 -0.06 l0 0.06 z M52.49999999999999 13.9 c0.02 0.08 0.02 -0.1 0 0 l0 0 z M51.48 14.02 l0.08 0 c0 -0.06 -0.04 -0.08 -0.08 -0.1 c-0.04 0.04 0 0.02 0 0.1 z M51.559999999999995 15.280000000000001 c0.06 -0.48 0.2 -1 0.14 -1.36 c-0.06 0.5 -0.2 0.9 -0.14 1.36 z M52.39999999999999 14.02 l0 0.04 c0.06 0.04 0.06 -0.08 0.02 -0.06 c0 0 0 0.02 -0.02 0.02 z M51.31999999999999 14.08 c0.02 0.1 0.02 -0.08 0 0 l0 0 z M52.199999999999996 14.16 c-0.02 -0.04 0.08 -0.08 0 -0.1 c0 0.02 -0.06 0.1 0 0.1 z M51.44 14.18 l0.04 0 l0 -0.04 l-0.04 0 l0 0.04 z M51.53999999999999 14.16 l0 0.04 l0.04 0 c0 0 0 -0.02 0.02 -0.02 l0 -0.04 l-0.04 0 c0 0 0 0.02 -0.02 0.02 z M52.339999999999996 14.2 c0.08 0.04 0.08 -0.1 0 -0.06 l0 0.06 z M52.67999999999999 14.16 c-0.08 0.12 0.14 0.04 0 0 l0 0 z M51.53999999999999 14.26 l0 0.04 c0.06 0.04 0.06 -0.08 0.02 -0.06 c0 0 0 0.02 -0.02 0.02 z M52.8 14.36 c0.02 -0.12 -0.1 -0.06 -0.14 -0.1 c0 0.06 0.08 0.14 0.14 0.1 z M51.26 14.379999999999999 c0.08 0.04 0.08 -0.1 0.04 -0.1 c-0.02 0.04 -0.04 0.04 -0.04 0.1 z M52.26 14.36 c0.02 0 0.02 0 0.04 0.02 c0 -0.02 0.02 -0.04 0.02 -0.06 c-0.02 0 -0.02 -0.02 -0.04 -0.02 c0 0.02 -0.02 0.04 -0.02 0.06 z M51.53999999999999 14.54 c-0.02 -0.08 0.1 -0.16 0 -0.18 c-0.02 0.04 -0.12 0.14 0 0.18 z M52.62 14.5 c0 -0.04 0.04 -0.04 0.06 -0.06 c0.02 -0.04 0 -0.08 -0.04 -0.08 c0.04 0.08 -0.1 0.1 -0.02 0.14 z M52.559999999999995 14.4 c0.02 0.02 0 -0.02 0 0 l0 0 z M51.35999999999999 14.52 c0.06 0 0.08 -0.04 0.08 -0.1 c-0.06 0 -0.06 0.06 -0.08 0.1 z M51.239999999999995 14.559999999999999 l-0.02 0 c-0.04 0.04 -0.02 0.12 0.04 0.1 c0.02 -0.04 0 -0.06 -0.02 -0.1 l0.02 0 c0.02 0 0.06 -0.08 0 -0.08 c0 0.02 -0.02 0.04 -0.02 0.08 z M52.199999999999996 14.6 c0 -0.06 0.08 -0.1 0 -0.12 c-0.02 0.04 -0.08 0.1 0 0.12 z M52.49999999999999 14.5 c0 0 -0.02 -0.02 0 0 l0 0 z M52.779999999999994 14.54 c0.1 0.02 0 -0.06 0 0 l0 0 z M51.31999999999999 14.559999999999999 l0 0.06 l0.06 0 l0 -0.08 l-0.04 0 c0 0.02 0 0.04 -0.02 0.02 z M51.85999999999999 14.66 c0.02 -0.06 -0.02 -0.08 -0.06 -0.1 c0 0.06 0 0.1 0.06 0.1 z M52.739999999999995 14.719999999999999 c0 -0.04 0.04 -0.06 0.04 -0.08 c-0.02 0 -0.02 0 -0.02 -0.02 l-0.06 0 c0.02 0.04 0 0.08 0.04 0.1 z M52.16 14.68 c-0.08 0.08 -0.12 0.18 -0.18 0.3 l0.1 0 c-0.02 -0.16 0.1 -0.16 0.08 -0.3 c0.06 0 -0.02 -0.1 0 0 z M52.519999999999996 14.68 c0.02 0.02 -0.02 0 0 0 l0 0 z M52.63999999999999 14.68 c0.02 0.02 -0.02 0 0 0 l0 0 z M52.519999999999996 14.780000000000001 c0 -0.04 -0.02 -0.08 -0.06 -0.1 c-0.02 0.04 -0.02 0.1 0.06 0.1 z M51.21999999999999 14.76 c0.02 0.02 0 -0.02 0 0 l0 0 z M51.44 14.84 c0.06 0 0.08 -0.04 0.06 -0.1 c-0.06 -0.02 -0.06 0.04 -0.06 0.1 z M52.49999999999999 14.98 c0.02 -0.04 0.02 -0.1 -0.04 -0.1 c-0.02 0.04 -0.02 0.08 0.04 0.1 z M51.44 14.98 c0.04 0 0.06 -0.02 0.06 -0.06 c-0.02 0 -0.08 0 -0.06 0.06 z M52.339999999999996 15.02 c0.08 0.04 0.08 -0.1 0 -0.06 l0 0.06 z M51.839999999999996 15.280000000000001 c0.08 0 0.22 -0.18 0.1 -0.24 c0 0.12 -0.08 0.14 -0.1 0.24 z M51.17999999999999 15.1 c0.02 0.08 0.02 -0.1 0 0 l0 0 z M51.419999999999995 15.1 c0.06 0.08 0.04 -0.1 0 0 l0 0 z M52.3 15.1 c0.08 0.08 0.04 -0.1 0 0 l0 0 z M51.3 15.16 l0 0.06 c0.06 0.04 0.06 -0.08 0.02 -0.08 c0 0.02 0 0.04 -0.02 0.02 z M52.279999999999994 15.2 l0.04 0 l0 -0.06 l-0.04 0 l0 0.06 z M52.199999999999996 15.34 l0.06 0 l0 -0.06 l-0.06 0 l0 0.06 z M52.31999999999999 15.48 c0.04 -0.04 0.04 -0.1 -0.02 -0.1 c-0.04 0.04 -0.02 0.08 0.02 0.1 z M51.779999999999994 15.46 c0.1 0.02 0 -0.08 0 0 l0 0 z M52.199999999999996 15.46 c0.02 0 0 -0.02 0 0 l0 0 z M52.019999999999996 15.84 c0.02 0.1 0.02 -0.1 0 0 l0 0 z M51.839999999999996 16.16 c0.08 -0.02 0.06 -0.12 0.1 -0.18 c-0.08 0 -0.08 0.1 -0.1 0.18 z M51.85999999999999 16.34 l0.06 0 c0 -0.02 0.02 -0.02 0.02 -0.04 c-0.02 0 -0.04 -0.04 -0.08 -0.02 l0 0.06 z M56.81999999999999 16.78 c0.06 -0.04 0.1 -0.1 0.14 -0.18 c-0.08 0.04 -0.14 0.08 -0.14 0.18 z M56.599999999999994 16.92 c0.06 0.04 0.16 -0.06 0.18 -0.14 c-0.08 0.02 -0.12 0.08 -0.18 0.14 z M50.959999999999994 17.06 c0.04 0 0.08 -0.02 0.06 -0.06 c-0.06 -0.02 -0.04 0.04 -0.06 0.06 z M56.53999999999999 17.02 c0.04 0.08 0.04 -0.1 0 0 l0 0 z M56.66 17.16 c0.06 0 0.12 -0.12 0.08 -0.14 c-0.02 0.06 -0.14 0.08 -0.08 0.14 z M50.71999999999999 17.4 c0.1 -0.08 0.2 -0.18 0.26 -0.28 c-0.16 0.02 -0.18 0.18 -0.26 0.28 z M51.53999999999999 17.44 c0.06 0.04 0.06 -0.12 0.02 -0.12 c0 0.06 -0.04 0.06 -0.02 0.12 z M50.76 17.48 c-0.06 0.08 0.08 -0.06 0 0 l0 0 z M56.3 17.48 c-0.04 0.08 0.08 -0.06 0 0 l0 0 z M51.53999999999999 17.54 l0.04 0 l0 -0.04 l-0.04 0 l0 0.04 z M50.62 17.54 l0 0.06 l0.04 0 c0.02 -0.02 0.02 -0.04 0.04 -0.04 l0 -0.04 l-0.06 0 c0 0.02 0 0.02 -0.02 0.02 z M56.22 17.54 c-0.06 0.08 0.08 -0.06 0 0 l0 0 z M56.03999999999999 17.68 c0.08 0.02 0.08 -0.04 0.1 -0.06 c-0.06 0 -0.08 0.04 -0.1 0.06 z M55.8 17.8 c0.06 0.02 0.08 -0.04 0.1 -0.06 c-0.06 0 -0.08 0.04 -0.1 0.06 z M55.66 17.88 c0.02 -0.06 0.1 0.04 0.12 -0.04 c-0.02 -0.06 -0.2 0 -0.12 0.04 z M55.39999999999999 18 c0.08 -0.02 0.14 -0.04 0.16 -0.12 c-0.08 0.02 -0.12 0.06 -0.16 0.12 z M55.8 18.1 c0.06 0.08 0.04 -0.08 0 0 l0 0 z M55.94 18.16 c-0.04 0.08 0.08 -0.06 0 0 l0 0 z M51.919999999999995 18.2 c-0.02 -0.02 -0.06 -0.04 -0.08 0 s0.1 0.04 0.08 0 z M55.3 18.34 c0.1 -0.04 0.2 -0.06 0.24 -0.14 c-0.12 -0.1 -0.28 0.06 -0.24 0.14 z M55.059999999999995 18.44 c0.04 -0.04 0.16 0 0.14 -0.08 c-0.06 0 -0.16 -0.02 -0.14 0.08 z M55.62 18.38 c0.1 0.02 0 -0.06 0 0 l0 0 z M54.94 18.44 l0.08 0 c0 -0.06 -0.04 -0.06 -0.08 -0.06 l0 0.06 z M54.919999999999995 8.18 l0.04 0 l0 0.06 l-0.04 0 l0 -0.06 z M54.739999999999995 8.6 c0.02 -0.04 0.02 -0.06 0.06 -0.06 l0 0.06 l-0.06 0 z M53.99999999999999 11.14 c0.08 -0.06 -0.06 0.08 0 0 l0 0 z M53.739999999999995 11.98 c0.08 -0.06 -0.06 0.08 0 0 l0 0 z M52.21999999999999 12.2 c0.02 -0.06 0.1 -0.02 0.08 0.04 c-0.04 -0.02 -0.04 -0.04 -0.08 -0.04 z M53.25999999999999 13.48 c0.08 -0.02 0.04 0.08 0.02 0.1 c-0.04 0 -0.02 -0.06 -0.02 -0.1 z M52.99999999999999 13.940000000000001 c0 0.1 0 0.22 -0.1 0.22 c0 -0.1 0.04 -0.16 0.1 -0.22 z M51.919999999999995 16.7 l0.04 0 l0 0.06 l-0.04 0 l0 -0.06 z M56.519999999999996 17.6 l0.06 0 l0 0.04 c-0.02 0 -0.02 0 -0.04 0.02 l-0.04 0 l0 -0.04 c0.02 0 0.02 -0.02 0.02 -0.02 z M59.385 15.66 c-0.06 0.34 0 0.56 -0.32 0.74 c-0.24 0.6 -0.82 0.88 -1.26 1.28 c-0.38 0.08 -0.84 0.34 -1.2 0.08 c-0.22 0.3 -0.24 0.66 -0.34 1.1 c0.82 0.58 2.02 -0.18 2.86 -0.44 c0.46 -0.26 0.96 -0.52 1.48 -0.74 c0.06 -0.08 0.18 -0.1 0.24 -0.16 c0.06 0.18 -0.36 0.28 -0.5 0.42 c0 0.04 0.04 0.02 0.08 0.02 c-0.56 0.5 -1.18 0.8 -1.92 1.06 c0.14 0 0.44 0 0.62 -0.1 c-0.02 0.1 -0.1 0.12 -0.18 0.16 c0 0.04 0.12 -0.02 0.08 0.06 c-0.24 0.08 -0.46 0.32 -0.58 0.24 c-0.1 0.04 -0.02 0.08 -0.06 0.14 c-0.54 0.24 -0.9 0.4 -1.6 0.4 c-0.96 -0.2 -1.08 -1.14 -0.96 -2 c0.36 -1.1 1.14 -2.32 2.24 -2.86 c0.2 -0.1 0.44 -0.06 0.64 -0.06 c0.16 0.02 0.2 0.14 0.34 0.16 c0.04 0.24 0.2 0.36 0.34 0.5 z M57.824999999999996 16.02 c0.08 0.02 0.14 -0.14 0.2 -0.06 c-0.34 0.26 -0.64 0.54 -0.9 0.88 c0.66 -0.34 1.26 -0.74 1.64 -1.34 c-0.34 0.14 -0.74 0.24 -0.94 0.52 z M57.705 16.1 c0.02 0.02 0 -0.02 0 0 l0 0 z M57.544999999999995 19.2 c0.06 0.02 0.14 -0.04 0.12 0.12 c0.1 -0.06 0.16 -0.1 0.26 0 c0.04 -0.04 -0.04 -0.12 0.04 -0.12 c0.14 0 0.38 -0.1 0.5 -0.18 c-0.3 0.16 -0.68 0.06 -0.92 0.18 z M60.925 17.48 l0 0 c0.04 0 0 -0.02 0 0 z M60.925 17.48 c0 0.04 -0.04 0.02 0 0 l0 0 z M59.065 19.04 c0.04 -0.08 0.04 0.1 0 0 l0 0 z M65.65 15.8 c-0.08 -0.06 -0.18 -0.12 -0.28 -0.16 c-0.64 0.26 -1.08 0.82 -1.64 1.04 c-0.04 0.18 -0.12 0.32 -0.28 0.36 c-0.6 0.84 -1.2 1.66 -1.68 2.6 c-0.06 0.46 -0.28 0.74 -0.66 0.88 c-1 -0.46 -0.42 -2.04 -0.32 -2.94 c0.2 -0.46 0.22 -1.16 0.44 -1.52 c0.88 0.2 0.52 1.14 0.42 1.78 c0.46 -0.7 1.04 -1.28 1.62 -1.88 c0.54 -0.46 1.9 -1.1 2.38 -0.16 z M64.17 15.66 c0.14 0.02 0.14 -0.1 0.24 -0.06 c-0.06 -0.14 0.16 -0.02 0.18 -0.16 c-0.14 0.04 -0.26 0.06 -0.32 0.04 c-1.1 0.64 -1.98 1.68 -2.58 2.8 c0.7 -1 1.46 -1.94 2.48 -2.62 z M64.65 15.46 c0.02 0.02 -0.02 0 0 0 l0 0 z M64.75 15.64 c0 0.04 -0.02 0.06 -0.04 0.08 c0.08 -0.02 0.18 -0.02 0.2 -0.12 c-0.06 0.02 -0.1 0.04 -0.16 0.04 z M64.55 15.82 c0.08 0 0.1 -0.06 0.14 -0.1 c-0.08 -0.04 -0.2 0 -0.14 0.1 z M63.989999999999995 16.12 c0.18 -0.02 0.3 -0.24 0.46 -0.24 c-0.02 -0.06 0.08 -0.14 -0.02 -0.12 c-0.12 0.14 -0.32 0.22 -0.44 0.36 z M64.27 16.04 c-0.06 0.08 0.08 -0.06 0 0 l0 0 z M63.83 16.28 c0.06 -0.04 0.14 -0.06 0.16 -0.14 c-0.06 0.04 -0.22 0.06 -0.16 0.14 z M63.57 16.62 c0.04 -0.08 0.16 -0.1 0.16 -0.22 l-0.06 0 c0.02 0.12 -0.18 0.14 -0.1 0.22 z M63.37 16.78 c0 0 0 -0.02 0.02 -0.02 c0 -0.02 0 -0.06 -0.04 -0.04 c0 0.02 0 0.06 0.02 0.06 z M64.17 15.66 c-0.02 0 -0.04 -0.02 0 -0.02 l0 0.02 z M63.47 16.08 l0 0 c0.02 0.02 -0.02 0 0 0 z M60.67 16.62 c0 -0.08 0.1 0.02 0 0 l0 0 z"/></g>
			</g>
		</svg>
	